<svg width="304" height="396" viewBox="928 432 304 396" fill="none" xmlns="http://www.w3.org/2000/svg"><path d="M1217.13 717.578C1215.34 713.456 1212.72 709.744 1209.34 706.776C1202.63 700.89 1193.73 698.395 1185.07 697.208C1180.5 696.586 1175.9 696.307 1171.28 696.165C1169.04 696.094 1166.79 696.151 1164.54 696.019C1161.73 695.851 1164.41 685.747 1162.1 684.633C1158.96 683.116 1154.66 684.1 1151.23 684.134L969.502 685.955C963.079 686.019 955.87 685.356 949.571 686.771C949.034 686.887 948.531 687.098 948.055 687.359C942.917 690.199 944.858 697.809 945.207 702.759C945.525 707.255 946.007 711.741 946.642 716.208C948.224 727.355 950.781 738.398 954.566 749.018C958.852 761.07 964.768 772.618 972.687 782.692C985.094 798.478 1002.63 810.089 1022.25 814.571C1031.13 816.604 1041.14 815.143 1050.16 815.823C1058.55 816.457 1067.61 816.606 1075.95 815.804C1082.38 815.183 1089.14 815.03 1095.57 814.709C1102.32 814.376 1106.77 812.818 1112.95 809.907C1122.66 805.337 1131.05 798.033 1138.13 790.041C1140.22 787.685 1142.2 784.304 1144.9 782.643C1147.26 781.191 1150.18 781.016 1152.88 780.51C1164.76 778.278 1176.34 773.398 1187.57 768.94C1202.96 762.824 1213.43 753.909 1217.86 743.164C1221.17 735.133 1220.92 726.282 1217.12 717.57L1217.13 717.578ZM1196.01 737.198C1194.31 741.329 1190.8 743.999 1187.57 746.837C1184.17 749.814 1179.92 751.764 1175.77 753.456C1173.08 754.553 1170.46 755.588 1167.79 756.71C1165.83 757.525 1163.85 757.853 1161.82 758.318C1159.79 758.783 1156.78 760.327 1155.17 757.982C1153.45 755.468 1155.51 750.144 1156.04 747.452C1157.22 741.402 1158.48 735.316 1159.55 729.249C1160.49 723.936 1160.39 716.487 1167.51 716.065C1171.76 715.817 1176.45 716.412 1180.65 717.114C1186.52 718.099 1192.94 720.173 1195.51 726.083C1197.27 730.129 1197.43 733.762 1196.02 737.189L1196.01 737.198Z" fill="currentColor"/><path d="M1214.97 468.245C1212.51 464.48 1209.31 461.258 1205.48 458.895C1197.89 454.21 1188.69 453.235 1179.96 453.509C1175.35 453.657 1170.76 454.15 1166.19 454.779C1163.97 455.083 1161.75 455.515 1159.52 455.76C1156.72 456.063 1157.68 445.653 1155.22 444.94C1151.87 443.968 1147.78 445.657 1144.41 446.263L965.534 478.366C959.211 479.5 951.993 480.048 946.018 482.494C945.507 482.698 945.047 482.99 944.621 483.327C940.029 486.984 943.212 494.164 944.381 498.986C945.445 503.366 946.668 507.708 948.039 512.007C951.459 522.734 955.822 533.196 961.324 543.036C967.561 554.204 975.319 564.604 984.807 573.216C999.674 586.712 1018.9 595.236 1038.99 596.383C1048.09 596.906 1057.72 593.796 1066.73 592.961C1075.1 592.189 1084.05 590.825 1092.14 588.643C1098.38 586.958 1105.03 585.679 1111.31 584.29C1117.91 582.837 1122.04 580.558 1127.65 576.658C1136.45 570.532 1143.51 561.931 1149.16 552.87C1150.83 550.199 1152.22 546.533 1154.6 544.447C1156.69 542.621 1159.53 541.962 1162.12 541.012C1173.45 536.831 1184.06 530.086 1194.39 523.818C1208.54 515.222 1217.38 504.684 1219.95 493.351C1221.88 484.882 1220.15 476.197 1214.96 468.239L1214.97 468.245ZM1197.42 491.113C1196.43 495.471 1193.42 498.688 1190.7 502.026C1187.84 505.528 1183.98 508.16 1180.17 510.52C1177.7 512.05 1175.29 513.507 1172.84 515.059C1171.05 516.188 1169.15 516.842 1167.23 517.639C1165.3 518.437 1162.59 520.462 1160.62 518.418C1158.49 516.226 1159.65 510.632 1159.72 507.89C1159.87 501.727 1160.1 495.517 1160.14 489.357C1160.18 483.963 1158.84 476.633 1165.79 475.03C1169.94 474.076 1174.66 473.881 1178.92 473.873C1184.87 473.865 1191.54 474.84 1195.07 480.238C1197.48 483.933 1198.25 487.489 1197.43 491.103L1197.42 491.113Z" fill="currentColor"/><path d="M1207.97 622.558C1206.73 618.237 1204.61 614.217 1201.64 610.835C1195.76 604.128 1187.25 600.5 1178.82 598.198C1174.37 596.989 1169.84 596.115 1165.29 595.376C1163.08 595.014 1160.83 594.777 1158.62 594.356C1155.85 593.823 1159.83 584.154 1157.68 582.749C1154.77 580.838 1150.37 581.255 1146.96 580.844L966.539 559.065C960.162 558.295 953.1 556.702 946.671 557.287C946.123 557.333 945.597 557.477 945.091 557.674C939.628 559.823 940.565 567.621 940.268 572.574C940.001 577.073 939.896 581.584 939.946 586.095C940.069 597.353 941.171 608.635 943.545 619.656C946.231 632.163 950.598 644.381 957.142 655.397C967.396 672.66 983.273 686.448 1002.15 693.439C1010.69 696.607 1020.81 696.458 1029.67 698.303C1037.89 700.02 1046.86 701.343 1055.23 701.63C1061.69 701.85 1068.42 702.576 1074.84 703.092C1081.57 703.637 1086.18 702.669 1092.69 700.586C1102.9 697.313 1112.18 691.161 1120.23 684.155C1122.61 682.09 1125.02 678.995 1127.9 677.698C1130.44 676.565 1133.35 676.77 1136.1 676.619C1148.16 675.948 1160.28 672.612 1172 669.649C1188.05 665.582 1199.59 658.101 1205.37 648.021C1209.69 640.487 1210.59 631.679 1207.97 622.548L1207.97 622.558ZM1184.49 639.271C1182.26 643.146 1178.44 645.338 1174.86 647.732C1171.1 650.242 1166.63 651.624 1162.3 652.764C1159.49 653.502 1156.76 654.189 1153.96 654.954C1151.92 655.509 1149.92 655.577 1147.84 655.775C1145.77 655.972 1142.58 657.112 1141.29 654.579C1139.91 651.862 1142.65 646.851 1143.52 644.251C1145.48 638.405 1147.51 632.533 1149.36 626.657C1150.98 621.511 1151.85 614.112 1158.96 614.617C1163.22 614.924 1167.78 616.121 1171.85 617.362C1177.55 619.1 1183.64 621.99 1185.43 628.185C1186.65 632.424 1186.34 636.048 1184.5 639.263L1184.49 639.271Z" fill="currentColor"/></svg>