<svg width="620" height="188" viewBox="770 626 620 188" fill="none" xmlns="http://www.w3.org/2000/svg">

<path d="M895.848 804.334C891.111 804.334 887.254 800.493 887.254 795.74V648.845C887.254 643.972 891.215 640.017 896.082 640.017C896.809 640.017 897.503 639.597 897.705 638.903C898.044 637.788 897.23 636.772 896.164 636.772H850.222C849.408 636.772 848.665 637.329 848.528 638.127C848.359 639.143 849.134 640.023 850.134 640.023H850.216C855.089 640.023 859.044 643.983 859.044 648.851L859.028 694.775C859.028 694.775 846.321 695.469 833.631 701.544C817.608 709.214 813.981 717.616 813.981 717.616L813.997 648.785C813.997 643.945 817.919 640.023 822.76 640.023C823.574 640.023 824.317 639.465 824.453 638.668C824.622 637.652 823.847 636.772 822.847 636.772H777.379C776.571 636.767 775.823 637.324 775.691 638.122C775.522 639.138 776.298 640.017 777.297 640.017H777.516C782.356 640.017 786.278 643.94 786.278 648.78L786.278 795.74C786.278 800.477 782.438 804.334 777.685 804.334H777.145C776.331 804.334 775.588 804.891 775.451 805.688C775.282 806.704 776.057 807.584 777.057 807.584H821.164C821.978 807.584 822.721 807.027 822.858 806.229C823.027 805.213 822.252 804.334 821.252 804.334H821.235C816.499 804.334 812.642 800.493 812.642 795.74V766.661C812.642 727.755 841.333 704.073 859.044 704.073V795.74C859.044 800.477 855.204 804.334 850.451 804.334H849.976C849.162 804.334 848.419 804.891 848.282 805.688C848.113 806.704 848.889 807.584 849.888 807.584H895.919C896.984 807.584 897.814 806.568 897.459 805.453C897.257 804.76 896.547 804.339 895.837 804.339H895.853L895.848 804.334Z" fill="currentColor"/>
<path d="M998.561 796.053L998.528 726.538C998.528 726.538 1000.29 696.252 977.715 684.08C955.12 671.909 927.707 678.814 914.678 686.861L916.519 709.33C916.749 712.176 920.633 712.799 921.753 710.187C926.407 699.234 935.443 685.02 950.826 685.02C965.374 685.02 970.755 697.869 970.755 710.187C959.649 710.187 905.927 716.076 905.927 770.05C905.927 792.518 920.687 809.251 943.97 809.251C953.956 809.251 963.964 804.826 971.285 794.152V794.283C971.285 801.652 977.256 807.722 984.647 807.722C992.038 807.722 999.539 807.738 1006.97 807.754C1007.86 807.754 1008.59 807.033 1008.59 806.143C1008.59 805.252 1007.86 804.531 1006.97 804.531C1002.34 804.531 998.566 800.686 998.566 796.042V796.058L998.561 796.053ZM970.853 775.818C970.853 786.329 962.528 799.342 952.225 799.342C940.955 799.342 933.596 783.909 933.596 767.493C933.596 741.981 944.129 717.814 970.848 717.568V775.818H970.853Z" fill="currentColor"/>
<path d="M1323.78 796.051L1323.75 726.536C1323.75 726.536 1325.51 696.25 1302.94 684.079C1280.34 671.907 1252.93 678.812 1239.9 686.859L1241.74 709.328C1241.97 712.174 1245.85 712.797 1246.97 710.186C1251.62 699.233 1260.66 685.018 1276.04 685.018C1290.59 685.018 1295.97 697.867 1295.97 710.186C1284.87 710.186 1231.14 716.075 1231.14 770.048C1231.14 792.517 1245.9 809.25 1269.18 809.25C1279.17 809.25 1289.18 804.825 1296.5 794.15V794.281C1296.5 801.651 1302.47 807.829 1309.86 807.829C1317.25 807.829 1324.75 807.846 1332.19 807.862C1333.08 807.862 1333.8 807.141 1333.8 806.251C1333.8 805.36 1333.08 804.639 1332.19 804.639C1327.55 804.639 1323.78 800.679 1323.78 796.041V796.057V796.051ZM1296.08 775.817C1296.08 786.328 1287.75 799.34 1277.45 799.34C1266.18 799.34 1258.82 783.907 1258.82 767.491C1258.82 741.98 1269.36 717.812 1296.08 717.566V775.817Z" fill="currentColor"/>
<path d="M1169.24 804.851C1164.43 804.819 1160.53 800.918 1160.53 796.083V689.475C1160.53 682.98 1155.26 677.714 1148.76 677.714H1124.39C1123.6 677.714 1122.86 678.254 1122.73 679.03C1122.56 680.035 1123.33 680.888 1124.29 680.888C1129.12 680.888 1133.06 684.821 1133.06 689.656V796.083C1133.06 800.902 1129.16 804.819 1124.34 804.851C1123.56 804.851 1122.86 805.392 1122.73 806.152C1122.55 807.157 1123.32 808.025 1124.29 808.025H1169.26C1170.23 808.025 1171 807.151 1170.82 806.152C1170.69 805.398 1169.99 804.851 1169.21 804.851H1169.24Z" fill="currentColor"/>
<path d="M1070.65 677.715C1062.5 677.715 1056.46 680.889 1052.02 685.958V648.303C1052.02 641.671 1046.66 636.311 1040.02 636.311H1015.77C1014.98 636.311 1014.24 636.852 1014.11 637.628C1013.94 638.633 1014.71 639.485 1015.67 639.485C1020.58 639.485 1024.55 643.468 1024.55 648.368V795.773C1024.55 800.641 1020.59 804.59 1015.72 804.574C1015.03 804.574 1014.37 804.984 1014.16 805.628C1013.8 806.732 1014.62 807.748 1015.65 807.748H1040.24C1046.37 807.748 1051.41 803.028 1051.93 797.024C1056.36 803.552 1062.4 807.781 1070.61 807.781C1093.39 807.781 1116.69 782.793 1116.69 742.871C1116.69 699.031 1092.59 677.715 1070.61 677.715H1070.64H1070.65ZM1065.4 799.952C1051.09 795.773 1052.22 757.527 1052.02 742.871V734.993C1052.25 717.015 1054.62 690.268 1065.4 685.543C1077.25 680.359 1089.26 703.423 1089.26 742.871C1089.26 777.085 1076.46 802.689 1065.4 799.952Z" fill="currentColor"/>
<path d="M1224.97 807.753C1224.97 806.912 1223.97 806.448 1223.04 806.054C1217.7 803.804 1211.73 797.319 1211.73 769.355V685.527H1221.47C1222.59 685.527 1223.49 684.62 1223.49 683.505V679.736C1223.49 678.616 1222.58 677.715 1221.47 677.715H1211.73V638.447C1211.73 637.278 1210.77 636.328 1209.6 636.311H1206.1C1204.38 636.311 1203.53 637.186 1203.32 638.699C1200.84 656.153 1193.26 668.482 1176.17 677.229C1175.06 677.791 1173.22 678.693 1173.22 680.31V683.511C1173.22 684.631 1174.13 685.532 1175.25 685.532H1184.29V762.996C1184.29 796.751 1203.69 809.25 1223.09 809.25C1224.1 809.25 1224.98 808.616 1224.98 807.759L1224.97 807.753Z" fill="currentColor"/>
<path d="M1385.55 807.752C1385.55 806.91 1384.55 806.446 1383.63 806.053C1378.29 803.802 1372.31 797.318 1372.31 769.353V685.525H1382.05C1383.17 685.525 1384.07 684.618 1384.07 683.504V679.734C1384.07 678.615 1383.17 677.713 1382.05 677.713H1372.31V638.446C1372.31 637.277 1371.36 636.326 1370.19 636.31H1366.69C1364.96 636.31 1364.12 637.184 1363.91 638.697C1361.43 656.151 1353.85 668.481 1336.75 677.227C1335.65 677.79 1333.8 678.691 1333.8 680.308V683.509C1333.8 684.629 1334.71 685.531 1335.83 685.531H1344.87V762.994C1344.87 796.749 1364.27 809.249 1383.67 809.249C1384.69 809.249 1385.56 808.615 1385.56 807.757L1385.55 807.752Z" fill="currentColor"/>
<path d="M1145.48 661.756C1153.98 661.756 1160.86 654.867 1160.86 646.378C1160.86 637.889 1153.97 631 1145.48 631C1136.98 631 1130.09 637.889 1130.09 646.378C1130.09 654.867 1136.98 661.756 1145.48 661.756Z" fill="currentColor"/>
</svg>
