<svg width="2160" height="1440" viewBox="0 0 2160 1440" fill="none" xmlns="http://www.w3.org/2000/svg">
<rect width="2160" height="1440" fill="#ECD3BD"/>
<path d="M1217.13 717.578C1215.34 713.456 1212.72 709.744 1209.34 706.776C1202.63 700.89 1193.73 698.395 1185.07 697.208C1180.5 696.586 1175.9 696.307 1171.28 696.165C1169.04 696.094 1166.79 696.151 1164.54 696.019C1161.73 695.851 1164.41 685.747 1162.1 684.633C1158.96 683.116 1154.66 684.1 1151.23 684.134L969.502 685.955C963.079 686.019 955.87 685.356 949.571 686.771C949.034 686.887 948.531 687.098 948.055 687.359C942.917 690.199 944.858 697.809 945.207 702.759C945.525 707.255 946.007 711.741 946.642 716.208C948.224 727.355 950.781 738.398 954.566 749.018C958.852 761.07 964.768 772.618 972.687 782.692C985.094 798.478 1002.63 810.089 1022.25 814.571C1031.13 816.604 1041.14 815.143 1050.16 815.823C1058.55 816.457 1067.61 816.606 1075.95 815.804C1082.38 815.183 1089.14 815.03 1095.57 814.709C1102.32 814.376 1106.77 812.818 1112.95 809.907C1122.66 805.337 1131.05 798.033 1138.13 790.041C1140.22 787.685 1142.2 784.304 1144.9 782.643C1147.26 781.191 1150.18 781.016 1152.88 780.51C1164.76 778.278 1176.34 773.398 1187.57 768.94C1202.96 762.824 1213.43 753.909 1217.86 743.164C1221.17 735.133 1220.92 726.282 1217.12 717.57L1217.13 717.578ZM1196.01 737.198C1194.31 741.329 1190.8 743.999 1187.57 746.837C1184.17 749.814 1179.92 751.764 1175.77 753.456C1173.08 754.553 1170.46 755.588 1167.79 756.71C1165.83 757.525 1163.85 757.853 1161.82 758.318C1159.79 758.783 1156.78 760.327 1155.17 757.982C1153.45 755.468 1155.51 750.144 1156.04 747.452C1157.22 741.402 1158.48 735.316 1159.55 729.249C1160.49 723.936 1160.39 716.487 1167.51 716.065C1171.76 715.817 1176.45 716.412 1180.65 717.114C1186.52 718.099 1192.94 720.173 1195.51 726.083C1197.27 730.129 1197.43 733.762 1196.02 737.189L1196.01 737.198Z" fill="#D14415"/>
<path d="M1214.97 468.245C1212.51 464.48 1209.31 461.258 1205.48 458.895C1197.89 454.21 1188.69 453.235 1179.96 453.509C1175.35 453.657 1170.76 454.15 1166.19 454.779C1163.97 455.083 1161.75 455.515 1159.52 455.76C1156.72 456.063 1157.68 445.653 1155.22 444.94C1151.87 443.968 1147.78 445.657 1144.41 446.263L965.534 478.366C959.211 479.5 951.993 480.048 946.018 482.494C945.507 482.698 945.047 482.99 944.621 483.327C940.029 486.984 943.212 494.164 944.381 498.986C945.445 503.366 946.668 507.708 948.039 512.007C951.459 522.734 955.822 533.196 961.324 543.036C967.561 554.204 975.319 564.604 984.807 573.216C999.674 586.712 1018.9 595.236 1038.99 596.383C1048.09 596.906 1057.72 593.796 1066.73 592.961C1075.1 592.189 1084.05 590.825 1092.14 588.643C1098.38 586.958 1105.03 585.679 1111.31 584.29C1117.91 582.837 1122.04 580.558 1127.65 576.658C1136.45 570.532 1143.51 561.931 1149.16 552.87C1150.83 550.199 1152.22 546.533 1154.6 544.447C1156.69 542.621 1159.53 541.962 1162.12 541.012C1173.45 536.831 1184.06 530.086 1194.39 523.818C1208.54 515.222 1217.38 504.684 1219.95 493.351C1221.88 484.882 1220.15 476.197 1214.96 468.239L1214.97 468.245ZM1197.42 491.113C1196.43 495.471 1193.42 498.688 1190.7 502.026C1187.84 505.528 1183.98 508.16 1180.17 510.52C1177.7 512.05 1175.29 513.507 1172.84 515.059C1171.05 516.188 1169.15 516.842 1167.23 517.639C1165.3 518.437 1162.59 520.462 1160.62 518.418C1158.49 516.226 1159.65 510.632 1159.72 507.89C1159.87 501.727 1160.1 495.517 1160.14 489.357C1160.18 483.963 1158.84 476.633 1165.79 475.03C1169.94 474.076 1174.66 473.881 1178.92 473.873C1184.87 473.865 1191.54 474.84 1195.07 480.238C1197.48 483.933 1198.25 487.489 1197.43 491.103L1197.42 491.113Z" fill="#D14415"/>
<path d="M1207.97 622.558C1206.73 618.237 1204.61 614.217 1201.64 610.835C1195.76 604.128 1187.25 600.5 1178.82 598.198C1174.37 596.989 1169.84 596.115 1165.29 595.376C1163.08 595.014 1160.83 594.777 1158.62 594.356C1155.85 593.823 1159.83 584.154 1157.68 582.749C1154.77 580.838 1150.37 581.255 1146.96 580.844L966.539 559.065C960.162 558.295 953.1 556.702 946.671 557.287C946.123 557.333 945.597 557.477 945.091 557.674C939.628 559.823 940.565 567.621 940.268 572.574C940.001 577.073 939.896 581.584 939.946 586.095C940.069 597.353 941.171 608.635 943.545 619.656C946.231 632.163 950.598 644.381 957.142 655.397C967.396 672.66 983.273 686.448 1002.15 693.439C1010.69 696.607 1020.81 696.458 1029.67 698.303C1037.89 700.02 1046.86 701.343 1055.23 701.63C1061.69 701.85 1068.42 702.576 1074.84 703.092C1081.57 703.637 1086.18 702.669 1092.69 700.586C1102.9 697.313 1112.18 691.161 1120.23 684.155C1122.61 682.09 1125.02 678.995 1127.9 677.698C1130.44 676.565 1133.35 676.77 1136.1 676.619C1148.16 675.948 1160.28 672.612 1172 669.649C1188.05 665.582 1199.59 658.101 1205.37 648.021C1209.69 640.487 1210.59 631.679 1207.97 622.548L1207.97 622.558ZM1184.49 639.271C1182.26 643.146 1178.44 645.338 1174.86 647.732C1171.1 650.242 1166.63 651.624 1162.3 652.764C1159.49 653.502 1156.76 654.189 1153.96 654.954C1151.92 655.509 1149.92 655.577 1147.84 655.775C1145.77 655.972 1142.58 657.112 1141.29 654.579C1139.91 651.862 1142.65 646.851 1143.52 644.251C1145.48 638.405 1147.51 632.533 1149.36 626.657C1150.98 621.511 1151.85 614.112 1158.96 614.617C1163.22 614.924 1167.78 616.121 1171.85 617.362C1177.55 619.1 1183.64 621.99 1185.43 628.185C1186.65 632.424 1186.34 636.048 1184.5 639.263L1184.49 639.271Z" fill="#D14415"/>
<path d="M1151.01 1006.35C1147.57 1006.35 1144.43 1005.3 1143.44 1004.47C1142.86 1003.94 1142.76 1003.63 1142.76 1002.74V996.84C1142.76 996.578 1142.97 996.369 1143.23 996.369H1143.65C1143.91 996.369 1144.17 996.578 1144.27 996.996C1145.37 1001.12 1148.72 1004.57 1152.01 1004.57C1154.25 1004.57 1155.61 1002.85 1155.61 1000.65C1155.61 994.854 1143.13 992.608 1143.13 985.555C1143.13 981.481 1145.89 978.921 1150.75 978.921C1153.63 978.921 1156.34 979.652 1157.28 980.436C1157.86 980.958 1157.96 981.272 1157.96 982.16V986.757C1157.96 987.018 1157.75 987.227 1157.49 987.227H1157.07C1156.81 987.227 1156.55 987.018 1156.45 986.6C1155.4 982.787 1152.74 980.697 1150.33 980.697C1148.51 980.697 1147.2 981.794 1147.2 983.727C1147.2 988.533 1159.37 990.727 1159.37 998.877C1159.37 1003.37 1156.92 1006.35 1151.01 1006.35Z" fill="#553021"/>
<path d="M1132.2 1006.35C1126.35 1006.35 1121.13 1000.81 1121.13 992.504C1121.13 983.518 1125.99 978.921 1132.05 978.921C1137.17 978.921 1141.03 983.1 1141.03 987.436C1141.03 989.421 1140.41 989.578 1139.31 989.578H1126.3C1126.25 990.048 1126.25 990.571 1126.25 991.093C1126.25 999.034 1129.75 1003 1134.24 1003C1136.64 1003 1138.37 1001.96 1139.88 1000.08C1140.14 999.765 1140.46 999.713 1140.72 999.922L1140.93 1000.08C1141.19 1000.29 1141.29 1000.55 1141.14 1000.86C1139.26 1004.41 1135.91 1006.35 1132.2 1006.35ZM1126.4 987.75H1131.79C1134.97 987.75 1135.91 986.966 1135.91 984.981C1135.91 982.578 1134.08 980.697 1131.79 980.697C1128.86 980.697 1126.98 982.734 1126.4 987.75Z" fill="#553021"/>
<path d="M1110.16 1005.56C1109.85 1005.56 1109.69 1005.46 1109.69 1004.94V1004.68C1109.69 1004.21 1109.9 1004.05 1110.32 1003.94C1111.46 1003.63 1112.67 1002.64 1112.67 1001.33V986.757C1112.67 985.45 1111.99 984.51 1110.21 984.04C1109.95 983.988 1109.85 983.779 1109.85 983.518V983.1C1109.85 982.838 1110 982.682 1110.26 982.577C1111.88 982.055 1114.6 980.488 1116.11 978.972C1116.32 978.764 1116.58 978.816 1116.9 978.92C1117.26 979.077 1117.37 979.286 1117.37 979.547V1001.33C1117.37 1002.69 1118.67 1003.74 1119.93 1004C1120.19 1004.05 1120.35 1004.21 1120.35 1004.68V1004.94C1120.35 1005.46 1120.19 1005.56 1119.88 1005.56C1118.26 1005.56 1116.58 1005.3 1114.96 1005.3C1113.35 1005.3 1111.78 1005.56 1110.16 1005.56ZM1111.67 971.606C1111.67 969.412 1112.93 967.949 1114.81 967.949C1116.69 967.949 1117.89 969.412 1117.89 971.606C1117.89 973.853 1116.69 975.316 1114.81 975.316C1112.93 975.316 1111.67 973.853 1111.67 971.606Z" fill="#553021"/>
<path d="M1091.59 1005.56C1091.27 1005.56 1091.12 1005.46 1091.12 1004.94V1004.68C1091.12 1004.21 1091.33 1004.05 1091.75 1003.94C1092.89 1003.63 1094.1 1002.64 1094.1 1001.33V986.234C1094.1 984.928 1093.42 983.988 1091.64 983.518C1091.38 983.466 1091.27 983.257 1091.27 982.995V982.577C1091.27 982.316 1091.43 982.107 1091.69 982.055C1093.99 981.585 1096.24 980.07 1097.33 978.973C1097.54 978.764 1097.81 978.816 1098.12 978.921C1098.48 979.077 1098.59 979.286 1098.59 979.547V983.204C1100.31 980.697 1102.92 978.921 1104.91 978.921C1107.57 978.921 1108.88 980.592 1108.88 982.839C1108.88 984.51 1108.04 985.503 1106.53 985.503C1103.87 985.503 1104.39 982.943 1101.88 982.943C1100.52 982.943 1099.48 983.936 1098.8 985.764V1001.33C1098.8 1002.69 1100.1 1003.74 1101.36 1004C1101.62 1004.05 1101.78 1004.21 1101.78 1004.68V1004.94C1101.78 1005.46 1101.62 1005.56 1101.31 1005.56C1099.69 1005.56 1098.01 1005.3 1096.39 1005.3C1094.78 1005.3 1093.21 1005.56 1091.59 1005.56Z" fill="#553021"/>
<path d="M1075.95 1006.35C1070.94 1006.35 1068.69 1002.85 1068.69 997.728V983.675C1068.69 982.316 1067.38 981.272 1066.13 981.01C1065.87 980.958 1065.71 980.801 1065.71 980.331V980.07C1065.71 979.548 1065.87 979.443 1066.18 979.443C1067.33 979.443 1068.48 979.704 1070.2 979.704C1070.99 979.704 1071.82 979.6 1072.87 979.6C1074.12 979.6 1073.39 980.697 1073.39 984.72V995.952C1073.39 1001.02 1075.11 1003 1077.88 1003C1079.76 1003 1081.85 1001.91 1082.79 999.504V983.675C1082.79 982.316 1081.49 981.272 1080.23 981.01C1079.97 980.958 1079.82 980.801 1079.82 980.331V980.07C1079.82 979.548 1079.97 979.443 1080.29 979.443C1081.44 979.443 1082.59 979.704 1084.31 979.704C1085.09 979.704 1085.93 979.6 1086.97 979.6C1088.23 979.6 1087.5 980.697 1087.5 984.72V998.72C1087.5 1000.86 1088.17 1001.8 1089.95 1002.27C1090.21 1002.33 1090.32 1002.53 1090.32 1002.8V1003.21C1090.32 1003.47 1090.16 1003.68 1089.9 1003.74C1088.12 1003.94 1085.46 1004.88 1084.36 1005.93C1084.1 1006.14 1083.89 1006.19 1083.47 1006.03C1083.11 1005.88 1083 1005.67 1083 1005.41V1002.22C1081.23 1005.09 1078.67 1006.35 1075.95 1006.35Z" fill="#553021"/>
<path d="M1053.23 1006.35C1046.44 1006.35 1042.05 1000.97 1042.05 992.765C1042.05 984.406 1046.44 978.921 1053.18 978.921C1059.87 978.921 1064.15 984.302 1064.15 992.399C1064.15 1000.81 1059.87 1006.35 1053.23 1006.35ZM1047.17 992.295C1047.17 1000.13 1049.52 1004.73 1053.65 1004.73C1057.04 1004.73 1059.03 1000.39 1059.03 993.026C1059.03 985.137 1056.78 980.54 1052.86 980.54C1049.26 980.54 1047.17 984.876 1047.17 992.295Z" fill="#553021"/>
<path d="M1030.23 1005.56C1029.86 1005.56 1029.6 1005.41 1029.5 1005.04L1021.82 983.936C1021.19 982.16 1019.88 981.272 1018.68 981.01C1018.42 980.958 1018.26 980.801 1018.26 980.331V980.07C1018.26 979.548 1018.42 979.443 1018.73 979.443C1020.35 979.443 1021.66 979.704 1024.17 979.704C1026.36 979.704 1027.41 979.443 1029.29 979.443C1029.6 979.443 1029.76 979.548 1029.76 980.07V980.331C1029.76 980.801 1029.55 980.958 1029.13 981.063C1027.15 981.533 1026.57 982.525 1027.04 983.884L1031.85 998.198L1036.81 984.249C1037.33 982.63 1036.65 981.481 1034.83 981.063C1034.41 980.958 1034.2 980.801 1034.2 980.331V980.07C1034.2 979.548 1034.36 979.443 1034.67 979.443C1035.5 979.443 1037.12 979.704 1038.59 979.704C1039.84 979.704 1041.3 979.443 1042.09 979.443C1042.4 979.443 1042.56 979.548 1042.56 980.07V980.331C1042.56 980.801 1042.4 980.958 1042.14 981.01C1040.57 981.376 1039.58 982.369 1039.06 983.831L1031.33 1005.04C1031.22 1005.41 1031.01 1005.56 1030.65 1005.56H1030.23Z" fill="#553021"/>
<path d="M1016.07 1006.09C1014.08 1006.09 1012.62 1005.15 1011.99 1002.12C1009.75 1004.83 1006.98 1006.35 1003.95 1006.35C1001.13 1006.35 999.299 1004.31 999.299 1000.97C999.299 997.467 1002.12 994.384 1011.63 990.727L1011.68 987.227C1011.84 981.742 1011 980.697 1008.6 980.697C1006.72 980.697 1005.88 981.585 1005.15 984.302C1004.37 987.175 1003.27 987.854 1002.22 987.854C1001.23 987.854 1000.29 986.809 1000.29 985.346C1000.29 981.951 1004.84 978.921 1009.17 978.921C1014.4 978.921 1016.54 980.749 1016.38 986.496C1016.33 989.265 1016.28 992.869 1016.28 996.526C1016.33 1002.06 1016.7 1002.85 1017.64 1002.85C1018.05 1002.85 1018.42 1002.69 1018.73 1002.27C1018.89 1002.06 1019.2 1001.91 1019.62 1002.17L1019.78 1002.27C1020.2 1002.53 1020.14 1002.8 1019.99 1003.27C1019.31 1005.25 1018.16 1006.09 1016.07 1006.09ZM1004.31 1000.03C1004.31 1002.17 1005.25 1003.16 1006.66 1003.16C1007.81 1003.16 1010.01 1002.17 1011.68 999.974C1011.63 999.19 1011.58 998.407 1011.58 997.467V992.765C1006.25 994.75 1004.31 996.996 1004.31 1000.03Z" fill="#553021"/>
<path d="M988.828 1006.35C985.38 1006.35 982.246 1005.3 981.253 1004.47C980.679 1003.94 980.574 1003.63 980.574 1002.74V996.84C980.574 996.578 980.783 996.369 981.044 996.369H981.462C981.724 996.369 981.985 996.578 982.089 996.996C983.186 1001.12 986.53 1004.57 989.821 1004.57C992.067 1004.57 993.426 1002.85 993.426 1000.65C993.426 994.854 980.94 992.608 980.94 985.555C980.94 981.481 983.709 978.921 988.567 978.921C991.441 978.921 994.157 979.652 995.097 980.436C995.672 980.958 995.777 981.272 995.777 982.16V986.757C995.777 987.018 995.568 987.227 995.306 987.227H994.888C994.627 987.227 994.366 987.018 994.262 986.6C993.217 982.787 990.552 980.697 988.149 980.697C986.321 980.697 985.015 981.794 985.015 983.727C985.015 988.533 997.187 990.727 997.187 998.877C997.187 1003.37 994.732 1006.35 988.828 1006.35Z" fill="#553021"/>
<path d="M1208.88 955.337C1206.89 955.337 1204.8 953.666 1202.71 951.263C1200.52 954.031 1197.54 955.599 1194.09 955.599C1187.61 955.599 1183.38 950.897 1183.38 944.471C1183.38 939.978 1185.73 936.53 1190.38 933.396C1188.29 929.739 1187.14 926.709 1187.14 924.097C1187.14 919.343 1190.59 916.208 1195.24 916.208C1200.52 916.208 1203.18 919.134 1203.18 923.261C1203.18 926.604 1201.51 928.903 1195.66 932.246C1196.6 933.709 1197.7 935.224 1198.9 936.896C1200.78 939.508 1202.71 942.381 1204.44 944.889C1204.85 943.844 1205.17 942.747 1205.43 941.546C1205.95 939.195 1205.17 937.366 1202.14 937.105C1201.82 937.053 1201.67 936.896 1201.67 936.426V936.165C1201.67 935.642 1201.82 935.538 1202.14 935.538C1204.07 935.538 1205.43 935.694 1207.41 935.694C1209.5 935.694 1210.65 935.538 1212.79 935.538C1213.11 935.538 1213.27 935.642 1213.27 936.165V936.426C1213.27 936.896 1213.06 937.053 1212.59 937.105C1209.66 937.471 1207.94 939.247 1207.36 941.807C1207 943.583 1206.42 945.255 1205.74 946.77C1207.78 949.486 1209.5 951.471 1210.65 951.471C1211.33 951.471 1211.8 951.263 1212.48 950.636C1212.69 950.427 1212.95 950.427 1213.16 950.531L1213.63 950.792C1213.89 950.949 1213.94 951.158 1213.79 951.524C1212.64 954.084 1211.07 955.337 1208.88 955.337ZM1188.4 943.74C1188.4 949.8 1191.22 952.934 1195.14 952.934C1197.59 952.934 1199.68 951.994 1201.46 949.695C1199.11 946.665 1196.76 942.956 1194.51 939.769C1193.31 938.098 1192.26 936.53 1191.38 935.068C1189.76 936.844 1188.4 939.613 1188.4 943.74ZM1192.05 922.738C1192.05 925.194 1193.05 927.806 1194.77 930.731C1197.59 928.433 1198.53 926.761 1198.53 923.365C1198.53 919.97 1196.97 918.193 1195.19 918.193C1193.62 918.193 1192.05 919.761 1192.05 922.738Z" fill="#553021"/>
<path d="M1162.98 955.598C1159.53 955.598 1156.39 954.554 1155.4 953.718C1154.83 953.195 1154.72 952.882 1154.72 951.994V946.09C1154.72 945.829 1154.93 945.62 1155.19 945.62H1155.61C1155.87 945.62 1156.13 945.829 1156.24 946.247C1157.33 950.374 1160.68 953.822 1163.97 953.822C1166.22 953.822 1167.57 952.098 1167.57 949.904C1167.57 944.105 1155.09 941.859 1155.09 934.806C1155.09 930.731 1157.86 928.171 1162.72 928.171C1165.59 928.171 1168.31 928.903 1169.25 929.686C1169.82 930.209 1169.93 930.522 1169.93 931.41V936.008C1169.93 936.269 1169.72 936.478 1169.45 936.478H1169.04C1168.78 936.478 1168.51 936.269 1168.41 935.851C1167.37 932.037 1164.7 929.948 1162.3 929.948C1160.47 929.948 1159.16 931.045 1159.16 932.978C1159.16 937.784 1171.34 939.978 1171.34 948.128C1171.34 952.621 1168.88 955.598 1162.98 955.598Z" fill="#553021"/>
<path d="M1144.17 955.598C1138.32 955.598 1133.09 950.061 1133.09 941.754C1133.09 932.769 1137.95 928.171 1144.01 928.171C1149.13 928.171 1153 932.351 1153 936.687C1153 938.672 1152.37 938.829 1151.27 938.829H1138.26C1138.21 939.299 1138.21 939.821 1138.21 940.344C1138.21 948.284 1141.71 952.255 1146.21 952.255C1148.61 952.255 1150.33 951.21 1151.85 949.329C1152.11 949.016 1152.42 948.964 1152.68 949.173L1152.89 949.329C1153.15 949.538 1153.26 949.8 1153.1 950.113C1151.22 953.665 1147.88 955.598 1144.17 955.598ZM1138.37 937H1143.75C1146.94 937 1147.88 936.217 1147.88 934.231C1147.88 931.828 1146.05 929.948 1143.75 929.948C1140.82 929.948 1138.94 931.985 1138.37 937Z" fill="#553021"/>
<path d="M1109.73 954.815C1109.41 954.815 1109.25 954.71 1109.25 954.188V953.927C1109.25 953.457 1109.46 953.3 1109.88 953.195C1111.03 952.882 1112.23 951.889 1112.23 950.583V920.701C1112.23 919.395 1111.45 918.454 1109.78 917.984C1109.52 917.932 1109.41 917.723 1109.41 917.462V917.044C1109.41 916.783 1109.57 916.574 1109.83 916.522C1112.34 915.999 1114.17 915.32 1115.68 914.327C1115.89 914.171 1116.15 914.171 1116.31 914.223L1116.57 914.327C1116.83 914.432 1116.93 914.641 1116.93 914.902V942.904L1124.3 933.5C1125.55 931.933 1125.29 930.627 1122.32 930.261C1121.9 930.209 1121.69 930.052 1121.69 929.582V929.321C1121.69 928.798 1121.85 928.694 1122.16 928.694C1124.56 928.694 1126.55 928.955 1128.01 928.955C1129.26 928.955 1130.73 928.694 1132.03 928.694C1132.35 928.694 1132.5 928.798 1132.5 929.321V929.582C1132.5 930.052 1132.35 930.209 1132.08 930.261C1130.41 930.522 1128.11 931.672 1127.02 933.082L1122.32 938.986L1129.32 950.061C1130.36 951.68 1132.19 952.986 1133.44 953.248C1133.7 953.3 1133.86 953.457 1133.86 953.927V954.188C1133.86 954.71 1133.7 954.815 1133.39 954.815C1131.77 954.815 1129.94 954.554 1127.8 954.554C1125.97 954.554 1124.41 954.815 1122.52 954.815C1122.21 954.815 1122.05 954.71 1122.05 954.188V953.927C1122.05 953.457 1122.26 953.3 1122.68 953.195C1123.99 952.882 1124.51 951.837 1123.67 950.426L1119.23 942.904L1116.93 945.777V950.583C1116.93 951.941 1118.24 952.986 1119.49 953.248C1119.76 953.3 1119.91 953.457 1119.91 953.927V954.188C1119.91 954.71 1119.76 954.815 1119.44 954.815C1117.82 954.815 1116.15 954.554 1114.53 954.554C1112.91 954.554 1111.34 954.815 1109.73 954.815Z" fill="#553021"/>
<path d="M1104.46 955.337C1102.47 955.337 1101.01 954.397 1100.38 951.367C1098.14 954.083 1095.37 955.598 1092.34 955.598C1089.52 955.598 1087.69 953.561 1087.69 950.217C1087.69 946.717 1090.51 943.635 1100.02 939.978L1100.07 936.478C1100.23 930.992 1099.39 929.948 1096.99 929.948C1095.11 929.948 1094.27 930.836 1093.54 933.552C1092.75 936.426 1091.66 937.105 1090.61 937.105C1089.62 937.105 1088.68 936.06 1088.68 934.597C1088.68 931.201 1093.23 928.171 1097.56 928.171C1102.79 928.171 1104.93 930 1104.77 935.746C1104.72 938.515 1104.67 942.12 1104.67 945.777C1104.72 951.315 1105.08 952.098 1106.02 952.098C1106.44 952.098 1106.81 951.941 1107.12 951.523C1107.28 951.315 1107.59 951.158 1108.01 951.419L1108.17 951.523C1108.58 951.785 1108.53 952.046 1108.38 952.516C1107.7 954.501 1106.55 955.337 1104.46 955.337ZM1092.7 949.277C1092.7 951.419 1093.64 952.412 1095.05 952.412C1096.2 952.412 1098.4 951.419 1100.07 949.225C1100.02 948.441 1099.96 947.658 1099.96 946.717V942.015C1094.64 944.001 1092.7 946.247 1092.7 949.277Z" fill="#553021"/>
<path d="M1064.63 920.701C1064.63 919.395 1063.85 918.454 1062.17 917.984C1061.91 917.932 1061.81 917.723 1061.81 917.462V917.044C1061.81 916.783 1061.97 916.574 1062.23 916.522C1064.73 915.999 1066.35 915.32 1067.87 914.327C1068.08 914.171 1068.34 914.171 1068.5 914.223L1068.76 914.327C1069.02 914.432 1069.12 914.641 1069.12 914.902V931.149C1070.95 929.112 1073.2 928.171 1076.07 928.171C1081.71 928.171 1086.62 933.187 1086.62 940.918C1086.62 951.001 1080.88 955.598 1074.82 955.598C1070.79 955.598 1069.44 953.248 1067.92 953.248C1067.14 953.248 1066.72 953.457 1066.35 954.24C1066.14 954.658 1065.88 954.815 1065.47 954.815H1065.2C1064.68 954.815 1064.42 954.501 1064.47 953.979C1064.58 953.091 1064.63 950.688 1064.63 949.8V920.701ZM1069.33 949.747C1070.74 952.046 1073.04 953.091 1075.18 953.091C1078.47 953.091 1081.5 950.897 1081.5 942.172C1081.5 934.597 1078.53 930.836 1074.4 930.836C1072.52 930.836 1070.64 931.724 1069.33 933.291V949.747Z" fill="#553021"/>
<path d="M1044.5 963.121C1044.24 963.33 1043.97 963.33 1043.71 962.964L1043.4 962.494C1043.14 962.076 1043.4 961.763 1043.92 961.24C1045.39 959.83 1046.33 957.375 1046.22 955.442C1044.65 955.285 1043.71 954.031 1043.71 952.15C1043.71 950.165 1044.81 948.911 1046.53 948.911C1048.21 948.911 1049.51 950.165 1049.51 952.934C1049.51 955.964 1048.36 959.987 1044.5 963.121Z" fill="#553021"/>
<path d="M1033 955.598C1027.15 955.598 1021.92 950.061 1021.92 941.754C1021.92 932.769 1026.78 928.171 1032.84 928.171C1037.96 928.171 1041.83 932.351 1041.83 936.687C1041.83 938.672 1041.2 938.829 1040.1 938.829H1027.1C1027.04 939.299 1027.04 939.821 1027.04 940.344C1027.04 948.284 1030.54 952.255 1035.04 952.255C1037.44 952.255 1039.16 951.21 1040.68 949.329C1040.94 949.016 1041.25 948.964 1041.52 949.173L1041.72 949.329C1041.99 949.538 1042.09 949.8 1041.93 950.113C1040.05 953.665 1036.71 955.598 1033 955.598ZM1027.2 937H1032.58C1035.77 937 1036.71 936.217 1036.71 934.231C1036.71 931.828 1034.88 929.948 1032.58 929.948C1029.66 929.948 1027.78 931.985 1027.2 937Z" fill="#553021"/>
<path d="M1011.37 955.598C1005.52 955.598 1000.29 950.061 1000.29 941.754C1000.29 932.769 1005.15 928.171 1011.21 928.171C1016.33 928.171 1020.2 932.351 1020.2 936.687C1020.2 938.672 1019.57 938.829 1018.47 938.829H1005.47C1005.41 939.299 1005.41 939.821 1005.41 940.344C1005.41 948.284 1008.91 952.255 1013.41 952.255C1015.81 952.255 1017.53 951.21 1019.05 949.329C1019.31 949.016 1019.62 948.964 1019.88 949.173L1020.09 949.329C1020.35 949.538 1020.46 949.8 1020.3 950.113C1018.42 953.665 1015.08 955.598 1011.37 955.598ZM1005.57 937H1010.95C1014.14 937 1015.08 936.217 1015.08 934.231C1015.08 931.828 1013.25 929.948 1010.95 929.948C1008.03 929.948 1006.15 931.985 1005.57 937Z" fill="#553021"/>
<path d="M987.029 954.815C986.715 954.815 986.559 954.71 986.559 954.188V953.927C986.559 953.456 986.768 953.3 987.185 953.195C988.335 952.882 989.536 951.889 989.536 950.583V931.254C988.544 931.254 987.969 931.41 987.394 931.41C986.768 931.41 986.663 931.149 986.663 930.784V930.366C986.663 930 986.82 929.686 987.551 929.53C988.492 929.269 989.327 928.798 989.536 928.38V925.925C989.536 918.611 994.813 914.066 1000.3 914.066C1004.37 914.066 1005.94 915.424 1005.94 917.619C1005.94 919.029 1004.95 920.231 1003.33 920.231C1000.82 920.231 1001.13 916.522 997.373 916.522C995.596 916.522 994.238 918.35 994.238 924.306V928.903C995.544 928.903 996.902 928.851 998.104 928.851C999.097 928.851 999.41 929.06 999.41 929.634V930.47C999.41 931.201 999.097 931.358 998.156 931.358L994.238 931.306V950.583C994.238 951.941 995.544 952.986 997.738 953.248C998 953.3 998.156 953.456 998.156 953.927V954.188C998.156 954.71 998 954.815 997.686 954.815C995.126 954.815 993.455 954.554 991.835 954.554C990.216 954.554 988.648 954.815 987.029 954.815Z" fill="#553021"/>
<path d="M971.723 954.815C971.41 954.815 971.253 954.71 971.253 954.188V953.927C971.253 953.456 971.462 953.3 971.88 953.195C973.029 952.882 974.231 951.889 974.231 950.583V931.254C973.238 931.254 972.663 931.41 972.089 931.41C971.462 931.41 971.357 931.149 971.357 930.784V930.366C971.357 930 971.514 929.686 972.246 929.53C973.186 929.269 974.022 928.798 974.231 928.38V925.925C974.231 918.611 979.507 914.066 984.993 914.066C989.067 914.066 990.635 915.424 990.635 917.619C990.635 919.029 989.642 920.231 988.023 920.231C985.515 920.231 985.828 916.522 982.067 916.522C980.291 916.522 978.932 918.35 978.932 924.306V928.903C980.239 928.903 981.597 928.851 982.798 928.851C983.791 928.851 984.104 929.06 984.104 929.634V930.47C984.104 931.201 983.791 931.358 982.851 931.358L978.932 931.306V950.583C978.932 951.941 980.239 952.986 982.433 953.248C982.694 953.3 982.851 953.456 982.851 953.927V954.188C982.851 954.71 982.694 954.815 982.38 954.815C979.821 954.815 978.149 954.554 976.529 954.554C974.91 954.554 973.343 954.815 971.723 954.815Z" fill="#553021"/>
<path d="M959.283 955.598C952.492 955.598 948.104 950.217 948.104 942.015C948.104 933.657 952.492 928.171 959.231 928.171C965.918 928.171 970.202 933.552 970.202 941.65C970.202 950.061 965.918 955.598 959.283 955.598ZM953.223 941.545C953.223 949.382 955.574 953.979 959.701 953.979C963.097 953.979 965.082 949.643 965.082 942.277C965.082 934.388 962.836 929.791 958.918 929.791C955.313 929.791 953.223 934.127 953.223 941.545Z" fill="#553021"/>
<path d="M937.756 955.598C931.905 955.598 926.472 950.583 926.472 941.232C926.472 932.664 931.33 928.171 937.599 928.171C940.316 928.171 943.398 929.059 944.547 930.052C945.122 930.575 945.226 930.888 945.226 931.776V936.791C945.226 937.052 945.018 937.261 944.756 937.261H944.338C944.077 937.261 943.816 937.052 943.711 936.635C942.51 932.037 940.577 929.948 937.547 929.948C934.047 929.948 931.591 933.5 931.591 940.344C931.591 947.971 934.83 952.203 939.271 952.203C941.517 952.203 943.711 951.21 945.226 949.329C945.488 949.016 945.801 948.964 946.062 949.173L946.271 949.329C946.533 949.538 946.637 949.8 946.48 950.113C944.652 953.77 941.726 955.598 937.756 955.598Z" fill="#553021"/>
</svg>
