<svg width="2160" height="1440" viewBox="218 126 1740 1202" fill="none" xmlns="http://www.w3.org/2000/svg">
<rect width="2160" height="1440" fill="#F4F1DD"/>
<g filter="url(#filter0_d_390_15510)">
<rect x="802" y="751" width="556" height="556" fill="#D14415"/>
</g>
<g filter="url(#filter1_d_390_15510)">
<rect x="802" y="132" width="556" height="556" fill="#ECD3BD"/>
</g>
<g filter="url(#filter2_d_390_15510)">
<rect x="223" y="751" width="556" height="556" fill="#D14415"/>
</g>
<g filter="url(#filter3_d_390_15510)">
<rect x="223" y="132" width="556" height="556" fill="#ECD3BD"/>
</g>
<g filter="url(#filter4_d_390_15510)">
<rect x="1380" y="751" width="556" height="556" fill="#D14415"/>
</g>
<g filter="url(#filter5_d_390_15510)">
<rect x="1380" y="132" width="556" height="556" fill="#ECD3BD"/>
</g>
<path d="M934.327 1264.11C930.574 1264.11 927.519 1261.35 927.519 1257.92V1147.91C927.519 1144.4 930.656 1141.55 934.513 1141.55C935.088 1141.55 935.638 1141.24 935.798 1140.74C936.067 1139.94 935.422 1139.21 934.578 1139.21H898.179C897.534 1139.21 896.945 1139.61 896.837 1140.18C896.703 1140.92 897.318 1141.55 898.11 1141.55H898.175C902.035 1141.55 905.169 1144.4 905.169 1147.91L905.156 1185.16C905.156 1185.16 895.089 1185.66 885.035 1190.04C872.341 1195.57 869.467 1201.62 869.467 1201.62L869.48 1147.86C869.48 1144.38 872.587 1141.55 876.422 1141.55C877.067 1141.55 877.655 1141.15 877.764 1140.57C877.898 1139.84 877.283 1139.21 876.491 1139.21H840.469C839.829 1139.2 839.236 1139.6 839.132 1140.18C838.998 1140.91 839.612 1141.55 840.404 1141.55H840.577C844.412 1141.55 847.519 1144.37 847.519 1147.86V1257.92C847.519 1261.33 844.477 1264.11 840.711 1264.11H840.283C839.638 1264.11 839.05 1264.51 838.941 1265.09C838.807 1265.82 839.422 1266.46 840.214 1266.46H875.158C875.803 1266.46 876.392 1266.05 876.5 1265.48C876.634 1264.75 876.019 1264.11 875.227 1264.11H875.214C871.462 1264.11 868.407 1261.35 868.407 1257.92V1236.97C868.407 1208.93 891.137 1191.86 905.169 1191.86V1257.92C905.169 1261.33 902.126 1264.11 898.361 1264.11H897.984C897.339 1264.11 896.751 1264.51 896.643 1265.09C896.508 1265.82 897.123 1266.46 897.915 1266.46H934.383C935.227 1266.46 935.885 1265.72 935.603 1264.92C935.443 1264.42 934.881 1264.12 934.318 1264.12H934.331L934.327 1264.11Z" fill="#ECD3BD"/>
<path d="M1015.7 1258.15L1015.67 1208.05C1015.67 1208.05 1017.06 1186.23 999.179 1177.46C981.279 1168.69 959.561 1173.66 949.238 1179.46L950.697 1195.65C950.879 1197.71 953.956 1198.15 954.843 1196.27C958.53 1188.38 965.689 1178.14 977.877 1178.14C989.402 1178.14 993.665 1187.4 993.665 1196.27C984.866 1196.27 942.305 1200.52 942.305 1239.41C942.305 1255.6 953.999 1267.66 972.445 1267.66C980.357 1267.66 988.286 1264.47 994.085 1256.78V1256.87C994.085 1262.18 998.816 1266.56 1004.67 1266.56C1010.53 1266.56 1016.47 1266.57 1022.36 1266.58C1023.07 1266.58 1023.64 1266.06 1023.64 1265.42C1023.64 1264.78 1023.07 1264.26 1022.36 1264.26C1018.69 1264.26 1015.7 1261.49 1015.7 1258.14V1258.15L1015.7 1258.15ZM993.743 1243.57C993.743 1251.14 987.147 1260.52 978.985 1260.52C970.056 1260.52 964.226 1249.4 964.226 1237.57C964.226 1219.18 972.571 1201.77 993.739 1201.59V1243.57H993.743Z" fill="#ECD3BD"/>
<path d="M1273.36 1258.15L1273.33 1208.05C1273.33 1208.05 1274.73 1186.23 1256.84 1177.46C1238.94 1168.69 1217.22 1173.66 1206.9 1179.46L1208.36 1195.65C1208.54 1197.7 1211.62 1198.15 1212.5 1196.27C1216.19 1188.38 1223.35 1178.13 1235.54 1178.13C1247.06 1178.13 1251.32 1187.39 1251.32 1196.27C1242.53 1196.27 1199.96 1200.51 1199.96 1239.41C1199.96 1255.6 1211.65 1267.66 1230.1 1267.66C1238.01 1267.66 1245.94 1264.47 1251.74 1256.78V1256.87C1251.74 1262.18 1256.47 1266.63 1262.33 1266.63C1268.18 1266.63 1274.12 1266.65 1280.02 1266.66C1280.73 1266.66 1281.3 1266.14 1281.3 1265.5C1281.3 1264.85 1280.73 1264.34 1280.02 1264.34C1276.34 1264.34 1273.36 1261.48 1273.36 1258.14V1258.15V1258.15ZM1251.41 1243.57C1251.41 1251.14 1244.81 1260.52 1236.65 1260.52C1227.72 1260.52 1221.89 1249.4 1221.89 1237.57C1221.89 1219.18 1230.24 1201.77 1251.41 1201.59V1243.57Z" fill="#ECD3BD"/>
<path d="M1150.91 1264.49C1147.09 1264.47 1144 1261.66 1144 1258.17V1181.35C1144 1176.67 1139.83 1172.88 1134.68 1172.88H1115.37C1114.75 1172.88 1114.16 1173.26 1114.05 1173.82C1113.92 1174.55 1114.53 1175.16 1115.29 1175.16C1119.12 1175.16 1122.24 1178 1122.24 1181.48V1258.17C1122.24 1261.65 1119.15 1264.47 1115.33 1264.49C1114.72 1264.49 1114.16 1264.88 1114.05 1265.43C1113.91 1266.15 1114.52 1266.78 1115.29 1266.78H1150.92C1151.69 1266.78 1152.3 1266.15 1152.16 1265.43C1152.05 1264.89 1151.49 1264.49 1150.88 1264.49H1150.91Z" fill="#ECD3BD"/>
<path d="M1072.81 1172.86C1066.36 1172.86 1061.57 1175.15 1058.05 1178.8V1151.67C1058.05 1146.89 1053.8 1143.03 1048.55 1143.03H1029.33C1028.7 1143.03 1028.12 1143.42 1028.01 1143.97C1027.89 1144.7 1028.5 1145.31 1029.25 1145.31C1033.14 1145.31 1036.29 1148.18 1036.29 1151.71V1257.94C1036.29 1261.44 1033.15 1264.29 1029.29 1264.28C1028.75 1264.28 1028.22 1264.57 1028.05 1265.04C1027.77 1265.83 1028.42 1266.57 1029.24 1266.57H1048.72C1053.58 1266.57 1057.57 1263.16 1057.98 1258.84C1061.49 1263.54 1066.27 1266.59 1072.78 1266.59C1090.82 1266.59 1109.28 1248.58 1109.28 1219.81C1109.28 1188.22 1090.2 1172.86 1072.78 1172.86H1072.81H1072.81ZM1068.65 1260.95C1057.32 1257.94 1058.21 1230.38 1058.05 1219.81V1214.14C1058.23 1201.18 1060.11 1181.91 1068.65 1178.5C1078.04 1174.77 1087.55 1191.39 1087.55 1219.81C1087.55 1244.47 1077.41 1262.92 1068.65 1260.95Z" fill="#ECD3BD"/>
<path d="M1195.07 1266.57C1195.07 1265.97 1194.28 1265.63 1193.54 1265.35C1189.31 1263.73 1184.58 1259.05 1184.58 1238.9V1178.49H1192.29C1193.18 1178.49 1193.89 1177.84 1193.89 1177.04V1174.32C1193.89 1173.51 1193.18 1172.87 1192.29 1172.87H1184.58V1144.57C1184.58 1143.73 1183.82 1143.04 1182.89 1143.03H1180.12C1178.76 1143.03 1178.08 1143.66 1177.92 1144.75C1175.95 1157.33 1169.95 1166.21 1156.4 1172.51C1155.53 1172.92 1154.07 1173.57 1154.07 1174.74V1177.04C1154.07 1177.85 1154.79 1178.5 1155.67 1178.5H1162.84V1234.32C1162.84 1258.64 1178.21 1267.65 1193.57 1267.65C1194.38 1267.65 1195.07 1267.2 1195.07 1266.58L1195.07 1266.57Z" fill="#ECD3BD"/>
<path d="M1322.29 1266.58C1322.29 1265.97 1321.5 1265.64 1320.77 1265.35C1316.54 1263.73 1311.8 1259.06 1311.8 1238.91V1178.5H1319.52C1320.41 1178.5 1321.12 1177.85 1321.12 1177.04V1174.33C1321.12 1173.52 1320.4 1172.87 1319.52 1172.87H1311.8V1144.57C1311.8 1143.73 1311.05 1143.05 1310.12 1143.04H1307.35C1305.98 1143.04 1305.31 1143.67 1305.14 1144.76C1303.18 1157.33 1297.17 1166.22 1283.63 1172.52C1282.75 1172.93 1281.29 1173.58 1281.29 1174.74V1177.05C1281.29 1177.85 1282.01 1178.5 1282.9 1178.5H1290.06V1234.33C1290.06 1258.65 1305.43 1267.66 1320.8 1267.66C1321.61 1267.66 1322.3 1267.2 1322.3 1266.58L1322.29 1266.58Z" fill="#ECD3BD"/>
<path d="M1132.11 1161.38C1138.85 1161.38 1144.3 1156.41 1144.3 1150.29C1144.3 1144.18 1138.84 1139.21 1132.11 1139.21C1125.38 1139.21 1119.92 1144.18 1119.92 1150.29C1119.92 1156.41 1125.38 1161.38 1132.11 1161.38Z" fill="#ECD3BD"/>
<path d="M934.327 644.719C930.574 644.719 927.519 641.951 927.519 638.526V528.513C927.519 525.001 930.656 522.151 934.513 522.151C935.088 522.151 935.638 521.848 935.798 521.348C936.067 520.545 935.422 519.813 934.578 519.813H898.179C897.534 519.813 896.945 520.214 896.837 520.789C896.703 521.521 897.318 522.155 898.11 522.155H898.175C902.035 522.155 905.169 525.009 905.169 528.516L905.156 565.769C905.156 565.769 895.089 566.269 885.035 570.647C872.341 576.174 869.467 582.228 869.467 582.228L869.48 528.469C869.48 524.981 872.587 522.155 876.422 522.155C877.067 522.155 877.655 521.753 877.764 521.179C877.898 520.446 877.283 519.813 876.491 519.813H840.469C839.829 519.809 839.236 520.21 839.132 520.785C838.998 521.517 839.612 522.151 840.404 522.151H840.577C844.412 522.151 847.519 524.977 847.519 528.465V638.526C847.519 641.939 844.477 644.719 840.711 644.719H840.283C839.638 644.719 839.05 645.12 838.941 645.695C838.807 646.427 839.422 647.061 840.214 647.061H875.158C875.803 647.061 876.392 646.659 876.5 646.085C876.634 645.352 876.019 644.719 875.227 644.719H875.214C871.462 644.719 868.407 641.951 868.407 638.526V617.571C868.407 589.535 891.137 572.469 905.169 572.469V638.526C905.169 641.939 902.126 644.719 898.361 644.719H897.984C897.339 644.719 896.751 645.12 896.643 645.695C896.508 646.427 897.123 647.061 897.915 647.061H934.383C935.227 647.061 935.885 646.329 935.603 645.526C935.443 645.026 934.881 644.723 934.318 644.723H934.331L934.327 644.719Z" fill="#D14415"/>
<path d="M1015.7 638.755L1015.67 588.661C1015.67 588.661 1017.06 566.836 999.179 558.065C981.279 549.295 959.561 554.271 949.238 560.069L950.697 576.261C950.879 578.312 953.956 578.76 954.843 576.879C958.53 568.986 965.689 558.743 977.877 558.743C989.402 558.743 993.665 568.002 993.665 576.879C984.866 576.879 942.305 581.122 942.305 620.017C942.305 636.208 953.999 648.266 972.445 648.266C980.357 648.266 988.286 645.077 994.085 637.385V637.48C994.085 642.79 998.816 647.164 1004.67 647.164C1010.53 647.164 1016.47 647.176 1022.36 647.187C1023.07 647.187 1023.64 646.668 1023.64 646.026C1023.64 645.384 1023.07 644.865 1022.36 644.865C1018.69 644.865 1015.7 642.093 1015.7 638.747V638.759L1015.7 638.755ZM993.743 624.174C993.743 631.748 987.147 641.125 978.985 641.125C970.056 641.125 964.226 630.004 964.226 618.174C964.226 599.79 972.571 582.374 993.739 582.197V624.174H993.743Z" fill="#D14415"/>
<path d="M1273.36 638.754L1273.33 588.66C1273.33 588.66 1274.73 566.835 1256.84 558.064C1238.94 549.294 1217.22 554.27 1206.9 560.068L1208.36 576.26C1208.54 578.311 1211.62 578.759 1212.5 576.878C1216.19 568.985 1223.35 558.742 1235.54 558.742C1247.06 558.742 1251.32 568.001 1251.32 576.878C1242.53 576.878 1199.96 581.121 1199.96 620.016C1199.96 636.207 1211.65 648.265 1230.1 648.265C1238.01 648.265 1245.94 645.076 1251.74 637.384V637.479C1251.74 642.789 1256.47 647.241 1262.33 647.241C1268.18 647.241 1274.12 647.253 1280.02 647.265C1280.73 647.265 1281.3 646.745 1281.3 646.104C1281.3 645.462 1280.73 644.942 1280.02 644.942C1276.34 644.942 1273.36 642.088 1273.36 638.746V638.758V638.754ZM1251.41 624.173C1251.41 631.747 1244.81 641.124 1236.65 641.124C1227.72 641.124 1221.89 630.003 1221.89 618.173C1221.89 599.789 1230.24 582.373 1251.41 582.196V624.173Z" fill="#D14415"/>
<path d="M1150.91 645.098C1147.09 645.075 1144 642.264 1144 638.78V561.956C1144 557.275 1139.83 553.48 1134.68 553.48H1115.37C1114.75 553.48 1114.16 553.87 1114.05 554.429C1113.92 555.154 1114.53 555.768 1115.29 555.768C1119.12 555.768 1122.24 558.602 1122.24 562.086V638.78C1122.24 642.252 1119.15 645.075 1115.33 645.098C1114.72 645.098 1114.16 645.488 1114.05 646.035C1113.91 646.759 1114.52 647.385 1115.29 647.385H1150.92C1151.69 647.385 1152.3 646.756 1152.16 646.035C1152.05 645.492 1151.49 645.098 1150.88 645.098H1150.91Z" fill="#D14415"/>
<path d="M1072.81 553.467C1066.36 553.467 1061.57 555.754 1058.05 559.407V532.272C1058.05 527.493 1053.8 523.631 1048.55 523.631H1029.33C1028.7 523.631 1028.12 524.021 1028.01 524.58C1027.89 525.304 1028.5 525.918 1029.25 525.918C1033.14 525.918 1036.29 528.788 1036.29 532.319V638.542C1036.29 642.049 1033.15 644.896 1029.29 644.884C1028.75 644.884 1028.22 645.179 1028.05 645.643C1027.77 646.439 1028.42 647.171 1029.24 647.171H1048.72C1053.58 647.171 1057.57 643.77 1057.98 639.443C1061.49 644.148 1066.27 647.195 1072.78 647.195C1090.82 647.195 1109.28 629.188 1109.28 600.419C1109.28 568.828 1090.2 553.467 1072.78 553.467H1072.81H1072.81ZM1068.65 641.553C1057.32 638.542 1058.21 610.981 1058.05 600.419V594.743C1058.23 581.787 1060.11 562.513 1068.65 559.108C1078.04 555.372 1087.55 571.993 1087.55 600.419C1087.55 625.074 1077.41 643.526 1068.65 641.553Z" fill="#D14415"/>
<path d="M1195.07 647.18C1195.07 646.574 1194.28 646.239 1193.54 645.955C1189.31 644.334 1184.58 639.661 1184.58 619.509V559.101H1192.29C1193.18 559.101 1193.89 558.448 1193.89 557.645V554.928C1193.89 554.121 1193.18 553.472 1192.29 553.472H1184.58V525.175C1184.58 524.333 1183.82 523.648 1182.89 523.636H1180.12C1178.76 523.636 1178.08 524.266 1177.92 525.356C1175.95 537.934 1169.95 546.819 1156.4 553.121C1155.53 553.527 1154.07 554.176 1154.07 555.342V557.648C1154.07 558.455 1154.79 559.105 1155.67 559.105H1162.84V614.927C1162.84 639.251 1178.21 648.258 1193.57 648.258C1194.38 648.258 1195.07 647.802 1195.07 647.184L1195.07 647.18Z" fill="#D14415"/>
<path d="M1322.29 647.185C1322.29 646.578 1321.5 646.244 1320.77 645.96C1316.54 644.338 1311.8 639.666 1311.8 619.514V559.106H1319.52C1320.41 559.106 1321.12 558.452 1321.12 557.649V554.933C1321.12 554.126 1320.4 553.477 1319.52 553.477H1311.8V525.18C1311.8 524.337 1311.05 523.652 1310.12 523.641H1307.35C1305.98 523.641 1305.31 524.27 1305.14 525.361C1303.18 537.939 1297.17 546.824 1283.63 553.126C1282.75 553.532 1281.29 554.181 1281.29 555.346V557.653C1281.29 558.46 1282.01 559.11 1282.9 559.11H1290.06V614.932C1290.06 639.256 1305.43 648.263 1320.8 648.263C1321.61 648.263 1322.3 647.807 1322.3 647.189L1322.29 647.185Z" fill="#D14415"/>
<path d="M1132.11 541.981C1138.85 541.981 1144.3 537.017 1144.3 530.899C1144.3 524.781 1138.84 519.816 1132.11 519.816C1125.38 519.816 1119.92 524.781 1119.92 530.899C1119.92 537.017 1125.38 541.981 1132.11 541.981Z" fill="#D14415"/>
<path d="M1564.53 1155.03C1565.9 1155.09 1567.25 1155.15 1568.73 1155.22C1568.81 1156.19 1568.91 1156.87 1568.92 1157.55C1569 1174.02 1569.05 1190.49 1569.14 1206.96C1569.24 1224.4 1569.36 1241.84 1569.52 1259.28C1569.54 1260.94 1569.88 1262.62 1570.26 1264.25C1570.81 1266.6 1572.34 1268.12 1574.67 1268.74C1577.9 1269.61 1581.17 1269.6 1584.35 1268.56C1587.34 1267.57 1588.39 1265.19 1588.41 1261.77C1588.6 1234.07 1588.68 1206.37 1588.79 1178.67C1588.79 1177.7 1588.72 1176.69 1588.96 1175.77C1589.13 1175.09 1589.6 1174.26 1590.19 1173.94C1595.84 1170.86 1598.86 1165.79 1600.81 1159.93C1601.31 1158.42 1601.67 1156.87 1602.11 1155.26C1603.59 1154.92 1605.03 1154.78 1606.55 1155.64C1606.76 1176.58 1606.97 1197.53 1607.18 1218.48C1607.31 1218.49 1607.44 1218.5 1607.57 1218.51C1608.38 1214.41 1609.13 1210.31 1609.99 1206.21C1611.14 1200.77 1612.26 1195.32 1614.81 1190.29C1618.94 1182.13 1627.74 1181.38 1633.62 1184.21C1638.25 1186.45 1641.62 1189.92 1643.85 1194.57C1646.22 1199.5 1647.42 1204.73 1648.15 1210.1C1648.98 1216.16 1649.42 1222.27 1648.72 1228.35C1647.59 1237.99 1646.7 1247.73 1642.08 1256.56C1639.89 1260.74 1637.26 1264.56 1633.46 1267.53C1629.2 1270.87 1624.37 1272.51 1619.05 1272.95C1615.44 1273.25 1611.88 1273.27 1608.23 1272.83C1604.4 1272.37 1600.47 1272.88 1596.58 1272.87C1588.73 1272.85 1580.87 1272.73 1573.02 1272.72C1568.06 1272.72 1563.12 1272.85 1558.17 1272.87C1553.49 1272.89 1548.82 1272.86 1544.14 1272.82C1543.71 1272.82 1543.28 1272.69 1542.72 1272.59V1270.39C1543.5 1270.19 1544.25 1269.97 1545 1269.82C1548.32 1269.15 1550.52 1266.49 1550.56 1263.09C1550.67 1252.74 1550.87 1242.38 1550.86 1232.03C1550.84 1216.37 1550.66 1200.7 1550.55 1185.04C1550.53 1182.21 1550.55 1179.38 1550.52 1176.54C1550.51 1175.47 1550.81 1174.64 1551.83 1174.16C1558.18 1171.17 1561.32 1165.69 1563.27 1159.31C1563.68 1157.97 1564.06 1156.61 1564.53 1155.01L1564.53 1155.03ZM1607.9 1268.6C1610.68 1268.62 1613.55 1267.6 1616.08 1265.97C1621.84 1262.25 1625.02 1256.73 1626.72 1250.33C1628.53 1243.49 1629.87 1236.52 1629.99 1229.42C1630.07 1224.74 1629.77 1220.06 1629.67 1215.38C1629.57 1211.09 1628.75 1206.93 1627.38 1202.9C1626.79 1201.17 1625.92 1199.47 1624.9 1197.94C1622.95 1194.99 1619.11 1195.31 1617.64 1197.94C1617.25 1198.63 1616.78 1199.27 1616.39 1199.96C1613.81 1204.6 1612.85 1209.74 1612.03 1214.89C1611.42 1218.72 1611.16 1222.61 1610.7 1226.47C1609.94 1232.97 1608.91 1239.44 1608.44 1245.95C1607.93 1252.83 1607.93 1259.74 1607.73 1266.63C1607.72 1267.23 1607.84 1267.84 1607.91 1268.6H1607.9Z" fill="#ECD3BD"/>
<path d="M1689.22 1182.37C1689.27 1183.49 1689.3 1184.27 1689.34 1185.07C1689.02 1185.24 1688.81 1185.42 1688.57 1185.47C1682.85 1186.91 1679.36 1191.02 1677.8 1197.46C1676.59 1202.49 1676.25 1207.68 1676.15 1212.84C1675.95 1224.11 1676.05 1235.4 1675.98 1246.68C1675.93 1256.25 1682.63 1267.35 1691.91 1269.29C1699.35 1270.84 1706.59 1270.32 1713.07 1264.88C1719.65 1259.34 1722.13 1251.7 1722.15 1242.67C1722.16 1237.26 1719.97 1233.13 1716.29 1230.03C1714.52 1228.54 1712.57 1227.34 1710.67 1226.08C1708.46 1224.61 1706.17 1223.3 1703.99 1221.78C1693.44 1214.48 1693.62 1198.98 1700.76 1190.2C1705.02 1184.96 1710.25 1181.89 1716.63 1181.79C1726.48 1181.62 1736.34 1181.36 1746.19 1181.26C1748.74 1181.23 1751.32 1181.38 1753.81 1181.93C1757.66 1182.78 1760.6 1185.39 1762.17 1189.56C1762.96 1191.66 1763.47 1194.02 1763.64 1196.3C1764.12 1202.98 1764.43 1209.64 1763.95 1216.38C1763.54 1222.11 1762.93 1227.91 1763.71 1233.68C1763.94 1235.36 1764.4 1237.02 1764.96 1238.59C1765.57 1240.31 1766.89 1241.34 1768.43 1241.54C1771.15 1241.91 1773.88 1241.87 1776.42 1240.34C1778.27 1239.22 1779.4 1237.52 1779.67 1235.13C1779.81 1233.93 1779.85 1232.7 1779.85 1231.48C1779.83 1212.37 1779.83 1230.77 1779.74 1211.66C1779.72 1206.18 1779.4 1200.7 1779.24 1195.21C1779.21 1194.3 1779.35 1193.39 1779.34 1192.48C1779.29 1188.24 1778.05 1184.88 1773.94 1184.12C1773.42 1184.02 1772.91 1183.91 1772.28 1183.78C1772.24 1183.08 1772.2 1182.4 1772.15 1181.65C1772.57 1181.54 1772.9 1181.35 1773.24 1181.37C1778.25 1181.49 1783.27 1181.46 1788.28 1181.82C1794.15 1182.26 1797.87 1187.14 1797.89 1193.92C1797.99 1218.22 1798.09 1205 1798.21 1229.29C1798.24 1233.11 1797.67 1236.76 1796.18 1240.2C1794.06 1245.1 1789.93 1247.54 1785.18 1247.33C1780.79 1247.14 1776.38 1247.65 1771.99 1247.61C1766.09 1247.57 1760.19 1247.39 1754.31 1247.07C1752.6 1246.98 1750.81 1246.47 1749.25 1245.67C1747.22 1244.62 1746.05 1242.48 1745.75 1239.93C1745.47 1237.52 1745.33 1235.07 1745.33 1232.65C1745.3 1220.35 1745.35 1208.05 1745.35 1195.74C1745.35 1194.22 1745.31 1192.7 1745.2 1191.18C1744.99 1188.23 1743.61 1186.22 1741.15 1185.48C1739.39 1184.96 1737.54 1184.62 1735.73 1184.6C1733.2 1184.59 1730.58 1184.54 1728.15 1185.21C1721.18 1187.18 1715.12 1193.94 1714.08 1205.42C1713.54 1211.31 1714.66 1216.32 1718.49 1220.32C1719.58 1221.47 1720.89 1222.36 1722.18 1223.23C1725.36 1225.38 1728.7 1227.26 1731.75 1229.63C1734.91 1232.09 1737.51 1235.23 1739.15 1239.37C1740.33 1242.36 1740.72 1245.42 1740.33 1248.57C1738.94 1259.62 1733.66 1267.11 1724.57 1270.97C1718.65 1273.49 1712.51 1274.95 1706.25 1275.09C1699.05 1275.24 1691.8 1275.14 1684.63 1274.51C1676.36 1273.78 1669.64 1269.21 1664.21 1261.95C1657.86 1253.44 1655.31 1243.52 1655.3 1232.44C1655.29 1223.85 1655.78 1215.35 1658.43 1207.25C1662.37 1195.22 1669.6 1186.99 1680.33 1183.11C1683.1 1182.11 1686 1181.9 1689.21 1182.39L1689.22 1182.37Z" fill="#ECD3BD"/>
<path d="M1869.57 1184.27C1868.96 1183.58 1868.68 1183.41 1868.64 1183.19C1867.68 1177.99 1866.76 1172.77 1865.81 1167.56C1865.58 1166.31 1866.18 1165.62 1867.14 1164.95C1874.63 1159.72 1882.71 1158 1891.54 1160.78C1902.68 1164.28 1909.43 1171.88 1911.74 1183.22C1913.49 1191.76 1913.87 1200.47 1912.53 1209.1C1911.42 1216.19 1909.42 1223.09 1905.3 1229.16C1898.37 1239.32 1888.76 1245.65 1877.1 1249.15C1870.69 1251.08 1864.17 1250.74 1857.64 1250.47C1851.62 1250.23 1846.02 1248.37 1840.56 1246.04C1839.43 1245.56 1838.41 1245.29 1837.26 1245.78C1833.68 1247.3 1829.96 1248.55 1826.56 1250.39C1823.47 1252.05 1820.66 1254.27 1817.87 1256.42C1816.85 1257.19 1816.03 1258.36 1815.43 1259.51C1812.9 1264.3 1815.12 1269.24 1820.39 1270.33C1822.7 1270.81 1825.13 1270.87 1827.5 1270.86C1832.54 1270.83 1837.58 1270.56 1842.61 1270.53C1849.51 1270.48 1856.41 1270.66 1863.31 1270.57C1867.28 1270.52 1871.25 1270.21 1875.2 1269.83C1880.54 1269.33 1884.5 1266.15 1888.02 1262.48C1889.9 1260.52 1891.34 1258.13 1892.92 1255.89C1893.63 1254.89 1894.18 1253.77 1894.8 1252.7C1896.62 1253.52 1902.9 1260.41 1907.03 1266.1C1901.96 1270.09 1896.14 1272.3 1889.83 1273.12C1881.49 1274.2 1873.07 1274.02 1864.69 1274.16C1861.59 1274.21 1858.49 1274.2 1855.4 1274.21C1846.21 1274.22 1837.02 1274.25 1827.83 1274.22C1819.35 1274.2 1810.86 1274.11 1802.37 1274.06C1799.37 1274.05 1796.36 1274.11 1793.36 1274.1C1792.68 1274.1 1792.01 1273.96 1791.34 1273.89C1790.6 1271.8 1791.53 1270.25 1792.41 1268.74C1795.07 1264.22 1798.77 1260.63 1803.2 1257.96C1810.61 1253.49 1818.21 1249.32 1825.71 1245C1827.46 1243.99 1829.16 1242.89 1831.17 1241.66C1830.21 1240.84 1829.54 1240.16 1828.78 1239.63C1818.76 1232.67 1813.14 1222.93 1811.2 1211.08C1809.78 1202.4 1809.31 1193.57 1811.37 1184.98C1813.19 1177.35 1816.49 1170.26 1823.03 1165.26C1826.85 1162.33 1831 1160.37 1835.94 1160.48C1837.18 1160.52 1838.41 1160.3 1839.65 1160.3C1843.63 1160.31 1847.33 1161.39 1850.7 1163.52C1857.03 1167.52 1861.73 1172.76 1863.95 1180.13C1865.23 1184.4 1866.17 1188.73 1866.48 1193.11C1866.79 1197.57 1866.4 1202.11 1866.13 1206.6C1865.97 1209.24 1865.65 1211.9 1865.05 1214.47C1863 1223.42 1858.85 1231.18 1851.64 1237.1C1849.88 1238.54 1848.09 1239.95 1846.2 1241.48C1848.45 1243.18 1850.9 1244.15 1853.41 1244.92C1870.06 1249.99 1885.59 1239.22 1890.73 1226.42C1893.18 1220.33 1894.11 1214.03 1894.04 1207.51C1893.94 1198.12 1894.01 1188.74 1893.87 1179.35C1893.81 1175.53 1893.01 1171.75 1891.46 1168.26C1888.99 1162.71 1885.19 1161.56 1880.39 1165.72C1878.29 1167.54 1876.5 1169.88 1875.08 1172.29C1873.35 1175.24 1872.16 1178.52 1870.74 1181.65C1870.4 1182.41 1870.06 1183.16 1869.56 1184.28L1869.57 1184.27ZM1838.03 1234.72C1840.75 1231.72 1842.57 1228.51 1844.05 1225.09C1846.49 1219.45 1846.75 1213.38 1847.07 1207.41C1847.38 1201.78 1846.95 1196.1 1846.78 1190.44C1846.62 1185.05 1846.64 1179.65 1845.7 1174.31C1845.2 1171.5 1844.49 1168.77 1842.46 1166.61C1840.24 1164.23 1837.45 1164.02 1834.86 1165.96C1832.83 1167.49 1831.75 1169.68 1831.4 1172.05C1830.7 1176.67 1830.12 1181.33 1829.86 1186C1829.66 1189.43 1830.04 1192.89 1830.14 1196.34C1830.34 1203.14 1830.61 1209.94 1830.69 1216.75C1830.73 1220 1831.48 1223.07 1832.59 1226.05C1833.75 1229.18 1835.1 1232.28 1838.03 1234.71V1234.72Z" fill="#ECD3BD"/>
<path d="M1437.69 1183.85C1435.05 1184.24 1432.79 1185.18 1430.88 1186.84C1428.54 1188.87 1426.97 1191.32 1426.19 1194.37C1424.99 1199.04 1424.55 1203.79 1424.53 1208.57C1424.47 1220.87 1424.54 1233.18 1424.64 1245.49C1424.67 1249.02 1424.89 1252.56 1425.18 1256.08C1425.42 1259.15 1426.38 1261.98 1428.64 1264.21C1430.99 1266.51 1434.02 1267.38 1437.09 1267.62C1442.72 1268.06 1448.38 1268.3 1454.02 1268.3C1468.44 1268.3 1482.85 1268.19 1497.27 1267.94C1500.5 1267.89 1503.78 1267.31 1506.95 1266.58C1511.78 1265.49 1515.02 1262.55 1515.49 1257.37C1515.93 1252.53 1516.31 1247.68 1516.37 1242.83C1516.51 1231.4 1516.55 1219.98 1516.41 1208.56C1516.36 1203.71 1515.99 1198.84 1514.62 1194.12C1513.05 1188.73 1509.64 1185.29 1504.12 1184.04C1503.87 1183.98 1503.63 1183.85 1503.4 1183.76C1503.03 1181.29 1503.17 1181.1 1505.47 1181.05C1510.02 1180.92 1514.22 1182.22 1518.15 1184.36C1528.35 1189.89 1533.77 1198.74 1536.18 1209.91C1537.87 1217.74 1537.22 1225.59 1537.18 1233.44C1537.14 1238.64 1536.83 1243.88 1536.11 1249.03C1535.63 1252.58 1534.66 1256.19 1533.17 1259.44C1529.18 1268.18 1522.12 1272.42 1512.5 1272.44C1508.62 1272.45 1504.74 1272.71 1500.86 1272.71C1496 1272.71 1491.14 1272.48 1486.28 1272.46C1477.62 1272.41 1468.95 1272.49 1460.28 1272.44C1449.23 1272.38 1438.17 1272.42 1427.13 1272.04C1422.19 1271.87 1417.37 1270.66 1413.28 1267.4C1410.42 1265.13 1408.38 1262.35 1407.02 1259.01C1405.42 1255.1 1404.97 1250.99 1404.57 1246.84C1403.69 1237.59 1403.09 1228.29 1403.62 1219.01C1404.12 1210.21 1405.81 1201.62 1411.33 1194.28C1417.03 1186.69 1424.36 1181.96 1433.95 1181.08C1434.57 1181.02 1435.19 1181.01 1435.81 1181.05C1437.71 1181.17 1437.79 1181.29 1437.69 1183.84V1183.85Z" fill="#ECD3BD"/>
<path d="M1441.83 1207.96C1442.17 1207.82 1442.58 1207.67 1442.96 1207.48C1446.19 1205.93 1448.05 1203.45 1448.03 1199.77C1447.99 1192.42 1447.95 1185.07 1447.86 1177.73C1447.78 1171 1447.61 1164.28 1447.49 1157.55C1447.48 1157.11 1447.49 1156.67 1447.46 1156.22C1447.25 1153.29 1446.45 1152.32 1443.64 1151.6C1443.05 1151.45 1442.44 1151.35 1441.68 1151.18C1441.65 1150.63 1441.63 1150.06 1441.59 1149.31C1445.97 1149.31 1450.22 1149.03 1454.42 1149.4C1457.36 1149.66 1459.84 1151.47 1461.94 1153.6C1463.18 1154.86 1463.59 1156.47 1463.63 1158.22C1463.73 1163.88 1463.84 1169.55 1463.94 1175.21C1463.97 1176.85 1463.94 1178.5 1463.94 1180.14C1464.14 1180.17 1464.34 1180.2 1464.54 1180.23C1464.76 1179.72 1465 1179.22 1465.18 1178.69C1466.56 1174.55 1468.47 1170.65 1471.13 1167.19C1476.26 1160.54 1486.66 1159.46 1491.3 1168.92C1495.7 1177.89 1495.38 1187.11 1491.94 1196.23C1489.58 1202.5 1484.73 1206.46 1478.5 1208.55C1475.77 1209.47 1472.82 1210.07 1469.95 1210.15C1461.2 1210.37 1452.44 1210.28 1443.69 1210.28C1441.84 1210.28 1441.84 1210.21 1441.82 1207.96L1441.83 1207.96ZM1463.59 1206.94C1466.97 1206.85 1469.83 1206.1 1472.23 1203.89C1474.84 1201.5 1476.66 1198.6 1477.7 1195.25C1479.44 1189.58 1479.68 1183.76 1479.1 1177.91C1478.97 1176.62 1478.56 1175.27 1477.94 1174.13C1476.22 1170.94 1473.77 1170.61 1471.66 1173.15C1470.32 1174.76 1469.21 1176.63 1468.31 1178.52C1464.11 1187.37 1463.03 1196.77 1463.59 1206.94Z" fill="#ECD3BD"/>
<path d="M1772.47 1260.39C1775.93 1259.97 1779.79 1263.72 1779.7 1267.93C1779.6 1272.01 1776.19 1275.23 1772.09 1275.12C1767.99 1275.01 1764.78 1271.63 1764.88 1267.53C1764.98 1263.39 1768.24 1260.33 1772.48 1260.39H1772.47Z" fill="#ECD3BD"/>
<path d="M1688.23 1295.52C1684.09 1295.54 1680.64 1292.35 1680.71 1288.28C1680.79 1283.43 1684.47 1280.8 1688.03 1280.82C1692.21 1280.84 1695.42 1283.93 1695.48 1288.09C1695.52 1292.31 1692.42 1295.5 1688.24 1295.52H1688.23Z" fill="#ECD3BD"/>
<path d="M1716.7 1288.19C1716.72 1292.4 1713.58 1295.53 1709.37 1295.51C1705.25 1295.5 1701.93 1292.23 1701.91 1288.18C1701.89 1284.12 1705.26 1280.81 1709.36 1280.83C1713.53 1280.85 1716.7 1284.02 1716.71 1288.19H1716.7Z" fill="#ECD3BD"/>
<path d="M1564.53 535.632C1565.9 535.696 1567.25 535.76 1568.73 535.823C1568.81 536.797 1568.91 537.473 1568.92 538.159C1569 554.629 1569.05 571.094 1569.14 587.565C1569.24 605.003 1569.36 622.447 1569.52 639.886C1569.54 641.546 1569.88 643.227 1570.26 644.855C1570.81 647.201 1572.34 648.722 1574.67 649.35C1577.9 650.217 1581.17 650.207 1584.35 649.164C1587.34 648.18 1588.39 645.796 1588.41 642.376C1588.6 614.675 1588.68 586.974 1588.79 559.274C1588.79 558.305 1588.72 557.295 1588.96 556.374C1589.13 555.693 1589.6 554.863 1590.19 554.549C1595.84 551.464 1598.86 546.399 1600.81 540.532C1601.31 539.026 1601.67 537.473 1602.11 535.866C1603.59 535.526 1605.03 535.382 1606.55 536.244C1606.76 557.188 1606.97 578.133 1607.18 599.082C1607.31 599.093 1607.44 599.109 1607.57 599.12C1608.38 595.018 1609.13 590.911 1609.99 586.82C1611.14 581.378 1612.26 575.925 1614.81 570.892C1618.94 562.737 1627.74 561.987 1633.62 564.817C1638.25 567.051 1641.62 570.53 1643.85 575.175C1646.22 580.101 1647.42 585.336 1648.15 590.703C1648.98 596.763 1649.42 602.875 1648.72 608.951C1647.59 618.596 1646.7 628.336 1642.08 637.162C1639.89 641.349 1637.26 645.169 1633.46 648.137C1629.2 651.473 1624.37 653.117 1619.05 653.553C1615.44 653.851 1611.88 653.877 1608.23 653.436C1604.4 652.973 1600.47 653.484 1596.58 653.473C1588.73 653.457 1580.87 653.34 1573.02 653.329C1568.06 653.324 1563.12 653.457 1558.17 653.478C1553.49 653.5 1548.82 653.462 1544.14 653.43C1543.71 653.43 1543.28 653.292 1542.72 653.191V650.994C1543.5 650.797 1544.25 650.579 1545 650.425C1548.32 649.754 1550.52 647.1 1550.56 643.7C1550.67 633.348 1550.87 622.99 1550.86 612.637C1550.84 596.976 1550.66 581.309 1550.55 565.647C1550.53 562.811 1550.55 559.981 1550.52 557.146C1550.51 556.076 1550.81 555.241 1551.83 554.762C1558.18 551.772 1561.32 546.298 1563.27 539.914C1563.68 538.574 1564.06 537.217 1564.53 535.616L1564.53 535.632ZM1607.9 649.206C1610.68 649.228 1613.55 648.206 1616.08 646.573C1621.84 642.854 1625.02 637.338 1626.72 630.933C1628.53 624.091 1629.87 617.127 1629.99 610.025C1630.07 605.349 1629.77 600.662 1629.67 595.981C1629.57 591.698 1628.75 587.538 1627.38 583.506C1626.79 581.771 1625.92 580.08 1624.9 578.548C1622.95 575.6 1619.11 575.919 1617.64 578.548C1617.25 579.239 1616.78 579.877 1616.39 580.569C1613.81 585.208 1612.85 590.347 1612.03 595.491C1611.42 599.327 1611.16 603.216 1610.7 607.078C1609.94 613.574 1608.91 620.043 1608.44 626.56C1607.93 633.433 1607.93 640.343 1607.73 647.238C1607.72 647.839 1607.84 648.446 1607.91 649.206H1607.9Z" fill="#D14415"/>
<path d="M1689.22 562.978C1689.27 564.089 1689.3 564.871 1689.34 565.677C1689.02 565.848 1688.81 566.019 1688.57 566.074C1682.85 567.516 1679.36 571.621 1677.8 578.065C1676.59 583.098 1676.25 588.283 1676.15 593.439C1675.95 604.714 1676.05 616.002 1675.98 627.284C1675.93 636.855 1682.63 647.953 1691.91 649.89C1699.35 651.447 1706.59 650.928 1713.07 645.48C1719.65 639.946 1722.13 632.304 1722.15 623.277C1722.16 617.865 1719.97 613.736 1716.29 610.633C1714.52 609.143 1712.57 607.945 1710.67 606.681C1708.46 605.215 1706.17 603.902 1703.99 602.387C1693.44 595.088 1693.62 579.586 1700.76 570.802C1705.02 565.567 1710.25 562.495 1716.63 562.391C1726.48 562.226 1736.34 561.964 1746.19 561.86C1748.74 561.835 1751.32 561.988 1753.81 562.538C1757.66 563.381 1760.6 565.995 1762.17 570.167C1762.96 572.268 1763.47 574.62 1763.64 576.904C1764.12 583.58 1764.43 590.244 1763.95 596.981C1763.54 602.717 1762.93 608.513 1763.71 614.286C1763.94 615.959 1764.4 617.627 1764.96 619.196C1765.57 620.913 1766.89 621.939 1768.43 622.147C1771.15 622.513 1773.88 622.477 1776.42 620.943C1778.27 619.826 1779.4 618.128 1779.67 615.733C1779.81 614.53 1779.85 613.302 1779.85 612.087C1779.83 592.974 1779.83 611.377 1779.74 592.259C1779.72 586.78 1779.4 581.301 1779.24 575.816C1779.21 574.906 1779.35 573.995 1779.34 573.085C1779.29 568.84 1778.05 565.487 1773.94 564.723C1773.42 564.626 1772.91 564.51 1772.28 564.381C1772.24 563.685 1772.2 563.007 1772.15 562.256C1772.57 562.14 1772.9 561.956 1773.24 561.969C1778.25 562.091 1783.27 562.06 1788.28 562.427C1794.15 562.86 1797.87 567.741 1797.89 574.527C1797.99 598.819 1798.09 585.602 1798.21 609.894C1798.24 613.718 1797.67 617.364 1796.18 620.803C1794.06 625.708 1789.93 628.139 1785.18 627.931C1780.79 627.742 1776.38 628.249 1771.99 628.218C1766.09 628.175 1760.19 627.992 1754.31 627.675C1752.6 627.583 1750.81 627.07 1749.25 626.27C1747.22 625.225 1746.05 623.081 1745.75 620.534C1745.47 618.128 1745.33 615.678 1745.33 613.253C1745.3 600.952 1745.35 588.65 1745.35 576.348C1745.35 574.827 1745.31 573.3 1745.2 571.786C1744.99 568.835 1743.61 566.82 1741.15 566.087C1739.39 565.561 1737.54 565.219 1735.73 565.207C1733.2 565.189 1730.58 565.14 1728.15 565.818C1721.18 567.779 1715.12 574.54 1714.08 586.023C1713.54 591.918 1714.66 596.926 1718.49 600.927C1719.58 602.069 1720.89 602.961 1722.18 603.829C1725.36 605.985 1728.7 607.86 1731.75 610.236C1734.91 612.691 1737.51 615.831 1739.15 619.972C1740.33 622.959 1740.72 626.025 1740.33 629.171C1738.94 640.221 1733.66 647.709 1724.57 651.575C1718.65 654.092 1712.51 655.558 1706.25 655.692C1699.05 655.845 1691.8 655.741 1684.63 655.112C1676.36 654.385 1669.64 649.81 1664.21 642.554C1657.86 634.045 1655.31 624.12 1655.3 613.046C1655.29 604.452 1655.78 595.949 1658.43 587.856C1662.37 575.823 1669.6 567.589 1680.33 563.717C1683.1 562.715 1686 562.501 1689.21 562.99L1689.22 562.978Z" fill="#D14415"/>
<path d="M1869.57 564.881C1868.96 564.189 1868.68 564.019 1868.64 563.801C1867.68 558.592 1866.76 553.374 1865.81 548.165C1865.58 546.921 1866.18 546.224 1867.14 545.553C1874.63 540.324 1882.71 538.606 1891.54 541.383C1902.68 544.888 1909.43 552.491 1911.74 563.827C1913.49 572.366 1913.87 581.074 1912.53 589.703C1911.42 596.8 1909.42 603.7 1905.3 609.765C1898.37 619.931 1888.76 626.256 1877.1 629.757C1870.69 631.683 1864.17 631.342 1857.64 631.081C1851.62 630.837 1846.02 628.975 1840.56 626.65C1839.43 626.171 1838.41 625.9 1837.26 626.389C1833.68 627.905 1829.96 629.156 1826.56 630.996C1823.47 632.661 1820.66 634.88 1817.87 637.024C1816.85 637.8 1816.03 638.965 1815.43 640.12C1812.9 644.902 1815.12 649.845 1820.39 650.941C1822.7 651.419 1825.13 651.473 1827.5 651.462C1832.54 651.435 1837.58 651.164 1842.61 651.132C1849.51 651.09 1856.41 651.265 1863.31 651.175C1867.28 651.121 1871.25 650.818 1875.2 650.441C1880.54 649.935 1884.5 646.754 1888.02 643.083C1889.9 641.125 1891.34 638.737 1892.92 636.497C1893.63 635.492 1894.18 634.374 1894.8 633.31C1896.62 634.124 1902.9 641.014 1907.03 646.706C1901.96 650.696 1896.14 652.904 1889.83 653.723C1881.49 654.803 1873.07 654.627 1864.69 654.766C1861.59 654.813 1858.49 654.808 1855.4 654.813C1846.21 654.824 1837.02 654.856 1827.83 654.829C1819.35 654.808 1810.86 654.712 1802.37 654.67C1799.37 654.654 1796.36 654.712 1793.36 654.707C1792.68 654.707 1792.01 654.569 1791.34 654.494C1790.6 652.409 1791.53 650.855 1792.41 649.35C1795.07 644.828 1798.77 641.237 1803.2 638.567C1810.61 634.098 1818.21 629.922 1825.71 625.602C1827.46 624.596 1829.16 623.495 1831.17 622.266C1830.21 621.442 1829.54 620.766 1828.78 620.234C1818.76 613.276 1813.14 603.54 1811.2 591.682C1809.78 583.011 1809.31 574.174 1811.37 565.583C1813.19 557.954 1816.49 550.868 1823.03 545.862C1826.85 542.936 1831 540.973 1835.94 541.09C1837.18 541.122 1838.41 540.904 1839.65 540.904C1843.63 540.92 1847.33 542 1850.7 544.128C1857.03 548.128 1861.73 553.363 1863.95 560.736C1865.23 565.003 1866.17 569.339 1866.48 573.717C1866.79 578.18 1866.4 582.713 1866.13 587.203C1865.97 589.842 1865.65 592.502 1865.05 595.076C1863 604.024 1858.85 611.786 1851.64 617.702C1849.88 619.149 1848.09 620.559 1846.2 622.085C1848.45 623.783 1850.9 624.756 1853.41 625.522C1870.06 630.597 1885.59 619.83 1890.73 607.03C1893.18 600.934 1894.11 594.64 1894.04 588.113C1893.94 578.728 1894.01 569.344 1893.87 559.96C1893.81 556.135 1893.01 552.358 1891.46 548.868C1888.99 543.319 1885.19 542.165 1880.39 546.33C1878.29 548.15 1876.5 550.485 1875.08 552.895C1873.35 555.847 1872.16 559.124 1870.74 562.258C1870.4 563.013 1870.06 563.769 1869.56 564.891L1869.57 564.881ZM1838.03 615.324C1840.75 612.323 1842.57 609.121 1844.05 605.7C1846.49 600.056 1846.75 593.986 1847.07 588.017C1847.38 582.383 1846.95 576.707 1846.78 571.046C1846.62 565.657 1846.64 560.258 1845.7 554.916C1845.2 552.102 1844.49 549.373 1842.46 547.213C1840.24 544.841 1837.45 544.622 1834.86 546.57C1832.83 548.096 1831.75 550.283 1831.4 552.655C1830.7 557.278 1830.12 561.939 1829.86 566.604C1829.66 570.036 1830.04 573.494 1830.14 576.946C1830.34 583.75 1830.61 590.549 1830.69 597.353C1830.73 600.609 1831.48 603.679 1832.59 606.658C1833.75 609.791 1835.1 612.882 1838.03 615.313V615.324Z" fill="#D14415"/>
<path d="M1437.69 564.455C1435.05 564.848 1432.79 565.79 1430.88 567.45C1428.54 569.471 1426.97 571.924 1426.19 574.972C1424.99 579.643 1424.55 584.399 1424.53 589.171C1424.47 601.476 1424.54 613.786 1424.64 626.096C1424.67 629.629 1424.89 633.166 1425.18 636.688C1425.42 639.753 1426.38 642.588 1428.64 644.817C1430.99 647.115 1434.02 647.988 1437.09 648.227C1442.72 648.669 1448.38 648.903 1454.02 648.903C1468.44 648.903 1482.85 648.791 1497.27 648.546C1500.5 648.493 1503.78 647.913 1506.95 647.19C1511.78 646.094 1515.02 643.157 1515.49 637.976C1515.93 633.14 1516.31 628.283 1516.37 623.431C1516.51 612.009 1516.55 600.587 1516.41 589.166C1516.36 584.319 1515.99 579.446 1514.62 574.727C1513.05 569.333 1509.64 565.896 1504.12 564.646C1503.87 564.588 1503.63 564.46 1503.4 564.37C1503.03 561.896 1503.17 561.71 1505.47 561.651C1510.02 561.529 1514.22 562.827 1518.15 564.965C1528.35 570.498 1533.77 579.345 1536.18 590.512C1537.87 598.348 1537.22 606.195 1537.18 614.041C1537.14 619.25 1536.83 624.49 1536.11 629.639C1535.63 633.188 1534.66 636.8 1533.17 640.05C1529.18 648.786 1522.12 653.026 1512.5 653.047C1508.62 653.052 1504.74 653.318 1500.86 653.318C1496 653.313 1491.14 653.089 1486.28 653.063C1477.62 653.02 1468.95 653.1 1460.28 653.047C1449.23 652.983 1438.17 653.026 1427.13 652.643C1422.19 652.472 1417.37 651.27 1413.28 648.009C1410.42 645.732 1408.38 642.96 1407.02 639.614C1405.42 635.709 1404.97 631.592 1404.57 627.448C1403.69 618.191 1403.09 608.892 1403.62 599.614C1404.12 590.82 1405.81 582.223 1411.33 574.887C1417.03 567.296 1424.36 562.561 1433.95 561.683C1434.57 561.625 1435.19 561.619 1435.81 561.656C1437.71 561.773 1437.79 561.89 1437.69 564.444V564.455Z" fill="#D14415"/>
<path d="M1441.83 588.569C1442.17 588.426 1442.58 588.272 1442.96 588.085C1446.19 586.532 1448.05 584.053 1448.03 580.372C1447.99 573.025 1447.95 565.678 1447.86 558.331C1447.78 551.607 1447.61 544.882 1447.49 538.158C1447.48 537.717 1447.49 537.27 1447.46 536.828C1447.25 533.897 1446.45 532.929 1443.64 532.205C1443.05 532.051 1442.44 531.95 1441.68 531.785C1441.65 531.232 1441.63 530.662 1441.59 529.912C1445.97 529.912 1450.22 529.636 1454.42 530.008C1457.36 530.269 1459.84 532.078 1461.94 534.2C1463.18 535.466 1463.59 537.078 1463.63 538.823C1463.73 544.489 1463.84 550.155 1463.94 555.815C1463.97 557.459 1463.94 559.103 1463.94 560.746C1464.14 560.773 1464.34 560.8 1464.54 560.832C1464.76 560.321 1465 559.821 1465.18 559.294C1466.56 555.15 1468.47 551.256 1471.13 547.798C1476.26 541.143 1486.66 540.068 1491.3 549.527C1495.7 558.491 1495.38 567.71 1491.94 576.834C1489.58 583.101 1484.73 587.064 1478.5 589.155C1475.77 590.07 1472.82 590.676 1469.95 590.751C1461.2 590.974 1452.44 590.884 1443.69 590.884C1441.84 590.884 1441.84 590.814 1441.82 588.564L1441.83 588.569ZM1463.59 587.548C1466.97 587.458 1469.83 586.702 1472.23 584.494C1474.84 582.1 1476.66 579.206 1477.7 575.85C1479.44 570.184 1479.68 564.364 1479.1 558.512C1478.97 557.225 1478.56 555.873 1477.94 554.735C1476.22 551.548 1473.77 551.218 1471.66 553.756C1470.32 555.363 1469.21 557.23 1468.31 559.129C1464.11 567.976 1463.03 577.376 1463.59 587.548Z" fill="#D14415"/>
<path d="M1772.47 640.992C1775.93 640.577 1779.79 644.328 1779.7 648.531C1779.6 652.611 1776.19 655.84 1772.09 655.729C1767.99 655.611 1764.78 652.233 1764.88 648.132C1764.98 643.993 1768.24 640.934 1772.48 640.992H1772.47Z" fill="#D14415"/>
<path d="M1688.23 676.119C1684.09 676.14 1680.64 672.954 1680.71 668.879C1680.79 664.032 1684.47 661.399 1688.03 661.42C1692.21 661.447 1695.42 664.538 1695.48 668.698C1695.52 672.916 1692.42 676.103 1688.24 676.119H1688.23Z" fill="#D14415"/>
<path d="M1716.7 668.794C1716.72 673.002 1713.58 676.131 1709.37 676.12C1705.25 676.109 1701.93 672.838 1701.91 668.784C1701.89 664.73 1705.26 661.416 1709.36 661.432C1713.53 661.453 1716.7 664.624 1716.71 668.794H1716.7Z" fill="#D14415"/>
<path d="M537.731 1174.41C539.02 1174.79 540.244 1175.03 541.383 1175.49C548.828 1178.5 552.144 1183.71 551.358 1192.12C550.786 1198.21 547.496 1202.8 542.72 1206.59C537.645 1210.63 531.762 1211.9 525.596 1212.58C525.157 1212.63 524.718 1212.69 523.911 1212.78C523.831 1215.23 523.681 1217.67 523.697 1220.12C523.718 1224.4 523.847 1228.67 523.916 1232.94C524.002 1238.2 524.339 1243.44 525.473 1248.58C526.227 1251.97 527.366 1255.27 530.002 1257.78C533.163 1260.79 537.923 1260.46 540.506 1256.95C543.202 1253.28 544.699 1249.1 545.031 1244.58C545.448 1238.9 545.753 1233.21 545.945 1227.52C546.031 1224.96 545.715 1222.38 545.598 1219.81C545.576 1219.38 545.641 1218.94 545.678 1218.38C548.967 1216.73 551.962 1214.69 553.946 1211.49C554.642 1210.36 555.278 1209.19 555.84 1207.99C556.963 1205.59 557.107 1205.5 560.188 1206.33C560.188 1207.11 560.188 1207.98 560.188 1208.85C560.129 1221.04 559.963 1233.24 560.097 1245.44C560.129 1248.4 560.936 1251.41 561.744 1254.3C562.536 1257.12 564.525 1259.08 567.483 1259.69C571.724 1260.57 575.136 1258.33 575.954 1254.06C576.355 1251.98 576.537 1249.83 576.585 1247.72C576.805 1237.22 576.965 1226.72 577.109 1216.22C577.163 1212.57 577.083 1208.92 577.12 1205.27C577.179 1199.48 576.885 1193.72 575.671 1188.03C574.382 1181.98 570.879 1178.05 564.846 1176.46C564.595 1176.4 564.359 1176.26 564.076 1176.15C563.99 1175.81 563.846 1175.47 563.824 1175.12C563.701 1173.16 564.033 1172.73 566.017 1172.7C569.13 1172.65 572.248 1172.7 575.361 1172.68C586.314 1172.63 597.267 1172.6 608.22 1172.49C612.563 1172.45 616.932 1172.19 621.189 1173.08C633.314 1175.6 642.47 1181.95 646.716 1194.03C648.123 1198.03 649.075 1202.22 649.925 1206.4C651.214 1212.71 650.529 1218.99 648.872 1225.15C645.919 1236.1 637.293 1242.58 625.928 1242.72C620.879 1242.77 616.221 1241.92 612.119 1238.77C607.428 1235.17 604.915 1230.39 603.861 1224.62C602.62 1217.81 604.022 1211.51 607.129 1205.53C610.172 1199.67 615.135 1195.87 621.109 1193.32C623.302 1192.38 625.58 1191.65 627.816 1190.82C626.388 1185.08 619.788 1180.02 615.114 1179.71C610.771 1179.42 606.428 1179.11 602.075 1178.93C596.299 1178.7 590.517 1178.58 584.741 1178.42C583.602 1178.39 582.463 1178.42 581.329 1178.42C583.415 1180.22 585.57 1181.88 587.506 1183.78C593.651 1189.81 596.256 1197.57 597.326 1205.8C599.107 1219.49 598.529 1233.16 595.331 1246.61C593.887 1252.67 590.961 1258.1 585.645 1261.83C581.516 1264.72 576.863 1266.01 571.874 1266.22C571.339 1266.24 570.799 1266.18 570.274 1266.24C561.985 1267.26 555.85 1263.66 550.999 1257.28C550.411 1256.51 549.818 1255.73 548.951 1254.59C548.448 1255.6 548.037 1256.41 547.646 1257.22C545.261 1262.16 541.287 1265.16 535.982 1266.06C532.126 1266.71 528.093 1266.63 524.387 1265.24C514.15 1261.4 507.47 1254.37 505.449 1243.34C504.534 1238.34 503.962 1233.33 504.053 1228.25C504.122 1224.33 503.844 1220.4 504.074 1216.5C504.465 1209.76 504.673 1202.96 505.791 1196.33C507.101 1188.59 510.514 1181.76 517.675 1177.54C519.418 1176.52 521.328 1175.77 523.606 1174.68C523.676 1171.79 523.9 1168.53 523.446 1165.29C523.141 1163.1 521.338 1162.67 519.376 1162.77C518.867 1161.7 518.889 1160.94 520.194 1160.82C521.253 1160.72 522.328 1160.76 523.397 1160.76C526.515 1160.76 529.633 1160.7 532.746 1160.78C536.329 1160.88 537.688 1162.34 537.715 1165.92C537.736 1168.74 537.715 1171.57 537.715 1174.42L537.731 1174.41ZM629.768 1194.95C626.126 1196.9 623.933 1199.07 622.238 1202.45C617.371 1212.18 617.504 1222.13 621.146 1232.16C621.553 1233.29 622.312 1234.39 623.168 1235.23C624.773 1236.83 626.853 1236.75 628.318 1235.03C629.153 1234.05 629.923 1232.82 630.19 1231.58C630.886 1228.39 631.575 1225.14 631.741 1221.89C632.126 1214.43 631.704 1206.99 630.549 1199.61C630.319 1198.15 630.062 1196.69 629.768 1194.95ZM523.98 1206.89C524.734 1206.75 525.259 1206.72 525.745 1206.56C528.489 1205.64 530.462 1203.71 532.083 1201.44C536.115 1195.78 537.966 1189.54 536.517 1182.61C535.789 1179.14 533.035 1178.37 530.43 1180.76C527.949 1183.04 526.248 1185.85 525.419 1189.1C523.959 1194.82 523.531 1200.65 523.986 1206.89H523.98Z" fill="#ECD3BD"/>
<path d="M364.605 1190.59C363.455 1186.03 360.68 1182.9 356.62 1181.1C353.973 1179.93 351.096 1179.05 348.234 1178.65C344.202 1178.09 340.094 1178.03 336.008 1177.86C330.949 1177.65 325.884 1177.52 320.825 1177.38C319.702 1177.35 318.579 1177.38 317.407 1177.38C317.509 1177.7 317.509 1177.92 317.611 1177.98C325.071 1183.08 329.858 1190 331.853 1198.82C333.067 1204.2 334.046 1209.59 333.997 1215.16C333.928 1223.09 333.65 1230.99 332.489 1238.84C331.65 1244.52 330.147 1249.95 326.997 1254.86C322.151 1262.4 313.706 1266.09 304.283 1264.21C299.314 1263.22 295.795 1259.9 293.143 1255.68C292.779 1255.11 292.463 1254.5 292.035 1253.75C290.864 1255.22 289.827 1256.54 288.773 1257.84C285.906 1261.37 282.221 1263.45 277.75 1264.32C265.797 1266.64 252.555 1261.67 247.062 1248.64C243.976 1241.32 242.661 1233.66 243.624 1225.69C244.212 1220.85 244.506 1215.95 245.399 1211.16C246.319 1206.22 248.437 1201.68 251.694 1197.77C255.534 1193.16 260.417 1190.53 266.423 1190.13C268.899 1189.96 271.423 1189.71 273.868 1189.99C281.312 1190.84 286.928 1194.82 291.217 1200.8C295.169 1206.31 297.127 1212.49 297.255 1219.26C297.416 1227.54 297.544 1235.81 297.828 1244.08C297.918 1246.74 298.314 1249.39 298.806 1252.01C299.4 1255.16 302.256 1257.35 305.545 1257.45C308.417 1257.54 310.936 1255.7 311.567 1252.45C312.171 1249.33 312.498 1246.12 312.535 1242.94C312.69 1229.58 312.674 1216.23 312.765 1202.88C312.802 1197.26 312.546 1191.69 311.198 1186.19C309.786 1180.46 306.272 1176.89 300.582 1175.41C300.245 1175.33 299.919 1175.22 299.411 1175.08C299.453 1174.29 299.496 1173.54 299.555 1172.53H351.374C351.438 1172.36 351.497 1172.19 351.561 1172.03C350.85 1171.59 350.16 1171.12 349.427 1170.73C345.352 1168.56 341.212 1166.48 337.19 1164.2C334.142 1162.47 331.409 1160.35 330.061 1156.9C328.938 1154.04 328.81 1151.23 330.2 1148.38C332.997 1142.64 337.88 1139.86 343.897 1138.94C353.155 1137.53 362.14 1138.99 370.889 1142.13C371.724 1142.43 372.515 1142.85 373.339 1143.18C374.419 1143.62 374.788 1144.41 374.622 1145.52C373.922 1150.25 373.226 1154.98 372.51 1159.88C371.793 1159.7 371.248 1159.74 371.018 1159.49C367.408 1155.46 363.894 1151.35 360.236 1147.37C359.048 1146.08 357.567 1145.03 356.128 1144C353.796 1142.34 351.064 1142.16 348.454 1142.83C347.133 1143.17 345.774 1144.32 344.967 1145.47C343.394 1147.71 343.02 1150.33 343.512 1153.09C344.277 1157.39 346.764 1160.61 350.026 1163.17C354.502 1166.68 359.284 1169.8 363.787 1173.28C367.718 1176.33 371.654 1179.42 375.216 1182.87C381.067 1188.54 384.543 1195.52 385.747 1203.67C386.816 1210.89 386.923 1218.04 384.816 1225.08C382.094 1234.17 376.328 1240.1 366.777 1242.02C362.888 1242.8 359.032 1243.08 355.155 1242.09C348.459 1240.38 343.715 1236.23 341.362 1229.84C337.394 1219.07 339.469 1209.18 346.774 1200.44C349.486 1197.19 353.101 1194.98 357 1193.36C359.375 1192.37 361.835 1191.59 364.616 1190.58L364.605 1190.59ZM263.342 1231.68C263.888 1236.43 264.316 1241.93 265.204 1247.35C265.808 1251.04 267.209 1254.55 270.183 1257.14C272.172 1258.88 273.868 1258.89 275.911 1257.23C277.831 1255.67 279.243 1253.68 279.879 1251.35C280.697 1248.37 281.462 1245.31 281.665 1242.24C281.959 1237.83 281.794 1233.38 281.697 1228.94C281.58 1223.71 281.542 1218.45 281.066 1213.24C280.713 1209.37 279.895 1205.52 278.922 1201.76C278.478 1200.04 277.365 1198.36 276.189 1196.98C274.547 1195.06 272.557 1195 270.461 1196.44C268.338 1197.91 266.813 1199.9 266.172 1202.38C265.46 1205.11 264.77 1207.9 264.546 1210.7C264.011 1217.43 263.754 1224.18 263.348 1231.68L263.342 1231.68ZM366.306 1194.56C362.412 1196.47 359.856 1199.18 358.123 1202.67C353.374 1212.23 353.545 1222.02 357.027 1231.88C357.428 1233.02 358.107 1234.16 358.936 1235.03C360.926 1237.12 363.637 1236.83 364.824 1234.21C365.948 1231.74 366.958 1229.1 367.311 1226.43C367.889 1222.05 368.044 1217.6 368.098 1213.18C368.14 1209.46 367.889 1205.74 367.557 1202.04C367.343 1199.61 366.76 1197.22 366.301 1194.56H366.306Z" fill="#ECD3BD"/>
<path d="M442.108 1254.2C440.616 1257.27 438.659 1260.13 435.68 1262.1C429.519 1266.18 422.732 1267.79 415.405 1266.97C412.848 1266.69 410.303 1266.25 407.789 1265.69C401.259 1264.23 396.467 1260.47 393.146 1254.65C389.723 1248.65 388.685 1242.34 390.161 1235.61C390.466 1234.23 390.942 1232.87 391.509 1231.58C395.419 1222.72 401.264 1215.32 408.361 1208.77C413.265 1204.25 417.967 1199.5 422.603 1194.7C424.379 1192.86 425.946 1190.73 427.187 1188.5C429.347 1184.62 428.797 1180.99 426.037 1178.2C423.261 1175.39 419.924 1175.07 416.41 1176.29C406.912 1179.6 404.885 1191.23 411.073 1197.94C411.682 1198.6 412.394 1199.13 411.886 1200.21C411.399 1201.26 410.623 1201.46 409.543 1201.56C400.435 1202.35 393.568 1194.3 392.766 1188.41C391.429 1178.61 397.59 1172.11 404.687 1170.29C413.672 1168 422.55 1168.85 430.69 1173.77C435.482 1176.68 439.188 1180.65 440.707 1186.13C442.541 1192.75 442.06 1199.2 437.787 1204.93C435.027 1208.63 432.064 1212.13 428.642 1215.31C423.833 1219.78 419.336 1224.6 414.902 1229.45C411.276 1233.41 409.645 1238.16 409.976 1243.65C410.431 1251.25 417.325 1258.27 424.882 1258.5C428.572 1258.61 431.364 1256.97 433.439 1253.99C436.177 1250.05 437.225 1245.6 437.257 1240.89C437.3 1234.83 437.311 1228.78 437.247 1222.72C437.231 1221.22 437.664 1220.45 439.103 1219.68C443.846 1217.13 447.494 1213.46 449.393 1208.27C449.601 1207.69 449.874 1207.14 450.098 1206.63C450.462 1206.53 450.714 1206.42 450.97 1206.4C453.987 1206.17 454.222 1206.33 454.185 1209.33C454.078 1217.69 453.848 1226.06 453.815 1234.43C453.799 1238.6 453.981 1242.78 454.324 1246.93C454.709 1251.62 457.03 1255.35 460.843 1258.09C464.015 1260.36 467.822 1259.29 469.539 1255.78C471.443 1251.87 472.261 1247.69 472.368 1243.39C472.609 1234.05 472.764 1224.71 472.893 1215.37C472.999 1207.36 473.026 1191.82 473.08 1183.82C473.096 1181.34 473.08 1178.85 473.08 1176.36C472.261 1176.12 471.775 1175.88 471.267 1175.84C466.138 1175.44 461.298 1173.87 456.687 1171.75C454.142 1170.58 451.687 1168.97 449.596 1167.1C444.675 1162.72 443.06 1157.01 444.205 1150.62C445.087 1145.67 447.997 1141.83 452.446 1139.72C459.142 1136.54 466.084 1136.36 472.684 1140.16C476.16 1142.16 479.15 1144.83 481.658 1148.05C486.295 1153.98 489.226 1160.68 491.141 1167.9C492.766 1174.04 493.515 1180.31 493.815 1186.61C494.184 1194.34 494.355 1209.63 494.221 1217.36C494.071 1226.42 493.884 1235.5 492.216 1244.46C491.36 1249.06 489.734 1253.34 487.231 1257.3C485.942 1259.35 483.99 1260.53 482.006 1261.75C470.989 1268.49 460.019 1268.01 449.339 1261.2C446.644 1259.48 444.633 1256.69 442.108 1254.2ZM473.128 1169.2C472.909 1165.69 472.898 1162.49 472.459 1159.37C471.983 1155.95 471.261 1152.56 470.363 1149.24C469.705 1146.81 468.325 1144.7 465.972 1143.45C463.522 1142.15 461.431 1142.72 460.223 1145.23C459.618 1146.48 459.158 1147.91 459.078 1149.28C458.73 1155.29 460.891 1160.44 465.041 1164.7C467.154 1166.87 469.764 1168.34 473.133 1169.2H473.128Z" fill="#ECD3BD"/>
<path d="M702.593 1253.78C701.898 1255.15 701.379 1256.28 700.764 1257.36C697.657 1262.76 692.907 1265.29 686.736 1265.55C673.322 1266.14 660.834 1255.56 658.909 1241.77C658.246 1237.01 657.711 1232.27 657.791 1227.45C657.893 1221.4 657.663 1215.33 658 1209.3C658.347 1203.11 658.444 1196.84 660.604 1190.89C662.326 1186.15 664.605 1181.76 668.675 1178.56C671.29 1176.5 674.162 1174.93 677.649 1174.11C677.649 1171.47 677.767 1168.84 677.606 1166.22C677.51 1164.6 676.462 1163.76 674.815 1163.46C674.296 1163.37 673.756 1163.38 673.05 1163.33C672.98 1162.76 672.916 1162.21 672.809 1161.29C674.232 1161.29 675.456 1161.29 676.681 1161.29C679.708 1161.29 682.735 1161.26 685.762 1161.3C689.281 1161.33 691.127 1163.21 691.185 1166.75C691.201 1167.91 691.132 1169.06 691.121 1170.22C691.11 1171.37 691.121 1172.52 691.121 1173.78C692.314 1174.08 693.432 1174.3 694.512 1174.63C703.903 1177.55 707.048 1185.24 705.251 1193.63C704.128 1198.86 700.994 1202.84 696.747 1206.17C691.565 1210.24 685.575 1211.43 679.323 1212.07C678.884 1212.12 678.441 1212.15 677.687 1212.21C677.633 1214.75 677.526 1217.3 677.542 1219.85C677.585 1225.9 677.505 1231.96 677.82 1238.01C678.098 1243.33 678.687 1248.66 681.157 1253.54C682.398 1255.99 683.987 1258.07 686.853 1258.77C689.736 1259.46 692.169 1258.74 693.972 1256.38C696.624 1252.9 698.298 1248.92 698.528 1244.59C698.887 1237.76 698.833 1230.9 698.951 1224.05C698.956 1223.7 698.962 1223.34 698.914 1222.98C698.48 1219.66 699.111 1217.17 702.641 1215.51C706.005 1213.92 708.043 1210.71 709.482 1207.26C709.754 1206.61 710.022 1205.95 710.364 1205.14C711.295 1205.09 712.231 1205.03 713.161 1204.99C713.905 1206.88 713.792 1208.6 713.728 1210.38C713.552 1215.53 713.589 1220.7 713.578 1225.86C713.562 1231.56 713.407 1237.26 713.653 1242.95C713.798 1246.29 714.493 1249.62 715.167 1252.91C715.68 1255.4 717.52 1257.06 719.659 1258.27C722.13 1259.68 724.451 1259 726.574 1257.41C730.628 1254.39 733.217 1250.3 734.95 1245.62C737.736 1238.08 737.886 1230.37 736.838 1222.48C735.672 1213.68 730.853 1207.05 724.868 1201.01C721.863 1197.98 718.771 1195.03 715.83 1191.93C713.819 1189.8 712.632 1187.32 712.813 1184.21C713.043 1180.35 714.68 1177.4 717.916 1175.35C720.429 1173.75 723.157 1172.72 726.152 1172.47C727.286 1172.37 728.42 1172.24 729.639 1171.69C728.789 1171.3 727.96 1170.86 727.088 1170.53C723.055 1168.94 719.574 1166.51 716.354 1163.67C710.893 1158.83 711.038 1152.2 715.381 1146.79C718.467 1142.95 722.681 1141.2 727.371 1140.5C732.329 1139.75 737.249 1140.04 742.229 1140.8C746.753 1141.48 751.112 1142.56 755.332 1144.26C758 1145.34 758.086 1145.61 757.642 1148.49C757.161 1151.65 756.711 1154.82 756.193 1157.98C756.043 1158.88 755.706 1159.76 755.3 1161.22C753.877 1159.91 752.813 1159.03 751.866 1158.03C748.684 1154.68 745.614 1151.22 742.357 1147.94C739.907 1145.47 737.019 1143.93 733.313 1144.12C730.922 1144.25 729.195 1145.23 728.018 1147.16C726.633 1149.42 726.237 1151.92 726.644 1154.57C727.136 1157.77 727.949 1160.78 730.083 1163.38C733.896 1168 738.854 1170.48 744.63 1171.57C746.459 1171.91 748.293 1172.22 750.272 1172.57V1176.62C748.839 1176.74 747.454 1176.93 746.069 1176.93C743.132 1176.95 740.223 1176.95 737.362 1177.82C734.265 1178.76 731.848 1180.61 729.708 1182.95C727.96 1184.87 727.826 1188.52 729.409 1190.35C730.217 1191.29 730.981 1192.3 731.917 1193.1C735.698 1196.34 739.635 1199.41 743.32 1202.76C746.336 1205.5 749.352 1208.33 751.893 1211.51C758.086 1219.23 760.231 1228.14 758.145 1237.83C754.128 1256.51 738.201 1267.08 722.151 1266.1C715.076 1265.67 708.936 1262.7 704.727 1256.59C704.128 1255.72 703.449 1254.9 702.593 1253.78V1253.78ZM677.799 1206.33C680.548 1206.29 682.564 1204.93 684.345 1203.13C689.126 1198.32 691.169 1192.42 690.881 1185.75C690.8 1183.96 690.233 1182.07 689.436 1180.45C688.49 1178.54 686.511 1178.33 685.035 1179.87C683.767 1181.2 682.495 1182.66 681.735 1184.3C679.831 1188.41 678.617 1192.76 678.141 1197.3C677.831 1200.26 677.237 1203.23 677.799 1206.33Z" fill="#ECD3BD"/>
<path d="M297.241 1135.06C298.979 1134.31 299.68 1135.06 300.257 1136.39C304.07 1145.11 301.589 1155.97 294.101 1161.76C285.309 1168.56 276.34 1175.14 267.435 1181.8C267.237 1181.95 266.959 1181.99 266.515 1182.15C259.884 1169.7 253.263 1157.27 246.609 1144.78H265.446C262.178 1148.93 260.167 1152.91 260.766 1157.71C261.178 1160.98 262.034 1164.13 263.622 1167.26C264.312 1166.89 264.857 1166.66 265.339 1166.33C272.89 1161.14 280.458 1155.98 287.946 1150.7C289.743 1149.43 291.427 1147.91 292.855 1146.24C295.599 1143.02 297.899 1139.53 297.241 1135.07V1135.06Z" fill="#ECD3BD"/>
<path d="M537.731 555.014C539.02 555.394 540.244 555.64 541.383 556.1C548.828 559.111 552.144 564.315 551.358 572.728C550.786 578.814 547.496 583.403 542.72 587.2C537.645 591.232 531.762 592.505 525.596 593.19C525.157 593.238 524.718 593.292 523.911 593.382C523.831 595.832 523.681 598.281 523.697 600.731C523.718 605.004 523.847 609.272 523.916 613.545C524.002 618.802 524.339 624.044 525.473 629.183C526.227 632.579 527.366 635.879 530.002 638.388C533.163 641.399 537.923 641.067 540.506 637.553C543.202 633.884 544.699 629.702 545.031 625.183C545.448 619.508 545.753 613.818 545.945 608.127C546.031 605.566 545.715 602.988 545.598 600.421C545.576 599.982 545.641 599.544 545.678 598.987C548.967 597.335 551.962 595.292 553.946 592.094C554.642 590.97 555.278 589.794 555.84 588.596C556.963 586.194 557.107 586.104 560.188 586.938C560.188 587.719 560.188 588.585 560.188 589.452C560.129 601.651 559.963 613.85 560.097 626.044C560.129 629.007 560.936 632.018 561.744 634.906C562.536 637.724 564.525 639.682 567.483 640.297C571.724 641.179 575.136 638.938 575.954 634.671C576.355 632.59 576.537 630.44 576.585 628.322C576.805 617.824 576.965 607.325 577.109 596.827C577.163 593.179 577.083 589.526 577.12 585.874C577.179 580.082 576.885 574.327 575.671 568.636C574.382 562.582 570.879 558.657 564.846 557.068C564.595 557.004 564.359 556.87 564.076 556.753C563.99 556.416 563.846 556.079 563.824 555.731C563.701 553.768 564.033 553.34 566.017 553.308C569.13 553.255 572.248 553.303 575.361 553.287C586.314 553.234 597.267 553.207 608.22 553.094C612.563 553.052 616.932 552.8 621.189 553.683C633.314 556.202 642.47 562.561 646.716 574.632C648.123 578.637 649.075 582.83 649.925 587.002C651.214 593.313 650.529 599.592 648.872 605.753C645.919 616.711 637.293 623.183 625.928 623.322C620.879 623.381 616.221 622.53 612.119 619.38C607.428 615.775 604.915 610.994 603.861 605.223C602.62 598.42 604.022 592.12 607.129 586.136C610.172 580.279 615.135 576.477 621.109 573.926C623.302 572.99 625.58 572.252 627.816 571.428C626.388 565.689 619.788 560.625 615.114 560.315C610.771 560.026 606.428 559.716 602.075 559.539C596.299 559.304 590.517 559.186 584.741 559.031C583.602 558.999 582.463 559.031 581.329 559.031C583.415 560.828 585.57 562.491 587.506 564.385C593.651 570.417 596.256 578.178 597.326 586.403C599.107 600.094 598.529 613.77 595.331 627.215C593.887 633.28 590.961 638.703 585.645 642.436C581.516 645.33 576.863 646.618 571.874 646.822C571.339 646.843 570.799 646.784 570.274 646.848C561.985 647.865 555.85 644.265 550.999 637.89C550.411 637.115 549.818 636.339 548.951 635.2C548.448 636.211 548.037 637.018 547.646 637.831C545.261 642.762 541.287 645.768 535.982 646.667C532.126 647.319 528.093 647.239 524.387 645.848C514.15 642.008 507.47 634.981 505.449 623.942C504.534 618.947 503.962 613.941 504.053 608.855C504.122 604.94 503.844 601.009 504.074 597.105C504.465 590.366 504.673 583.569 505.791 576.937C507.101 569.198 510.514 562.363 517.675 558.149C519.418 557.122 521.328 556.373 523.606 555.282C523.676 552.399 523.9 549.131 523.446 545.896C523.141 543.703 521.338 543.281 519.376 543.377C518.867 542.307 518.889 541.542 520.194 541.425C521.253 541.328 522.328 541.366 523.397 541.366C526.515 541.366 529.633 541.302 532.746 541.387C536.329 541.489 537.688 542.944 537.715 546.522C537.736 549.351 537.715 552.18 537.715 555.025L537.731 555.014ZM629.768 575.552C626.126 577.504 623.933 579.675 622.238 583.06C617.371 592.789 617.504 602.736 621.146 612.77C621.553 613.898 622.312 614.995 623.168 615.84C624.773 617.433 626.853 617.358 628.318 615.636C629.153 614.652 629.923 613.422 630.19 612.187C630.886 608.994 631.575 605.748 631.741 602.496C632.126 595.04 631.704 587.601 630.549 580.215C630.319 578.755 630.062 577.3 629.768 575.552ZM523.98 587.494C524.734 587.355 525.259 587.323 525.745 587.163C528.489 586.248 530.462 584.317 532.083 582.05C536.115 576.391 537.966 570.145 536.517 563.219C535.789 559.742 533.035 558.972 530.43 561.363C527.949 563.646 526.248 566.46 525.419 569.711C523.959 575.429 523.531 581.253 523.986 587.494H523.98Z" fill="#D14415"/>
<path d="M364.605 571.199C363.455 566.642 360.68 563.508 356.62 561.711C353.973 560.54 351.096 559.663 348.234 559.261C344.202 558.7 340.094 558.641 336.008 558.47C330.949 558.256 325.884 558.133 320.825 557.989C319.702 557.957 318.579 557.989 317.407 557.989C317.509 558.31 317.509 558.523 317.611 558.593C325.071 563.684 329.858 570.605 331.853 579.43C333.067 584.81 334.046 590.195 333.997 595.768C333.928 603.694 333.65 611.594 332.489 619.445C331.65 625.125 330.147 630.558 326.997 635.468C322.151 643.009 313.706 646.694 304.283 644.817C299.314 643.827 295.795 640.511 293.143 636.286C292.779 635.714 292.463 635.11 292.035 634.361C290.864 635.826 289.827 637.147 288.773 638.447C285.906 641.977 282.221 644.063 277.75 644.929C265.797 647.25 252.555 642.276 247.062 629.248C243.976 621.926 242.661 614.268 243.624 606.299C244.212 601.453 244.506 596.554 245.399 591.768C246.319 586.826 248.437 582.291 251.694 578.376C255.534 573.766 260.417 571.134 266.423 570.739C268.899 570.573 271.423 570.316 273.868 570.594C281.312 571.445 286.928 575.429 291.217 581.408C295.169 586.917 297.127 593.094 297.255 599.87C297.416 608.144 297.544 616.423 297.828 624.691C297.918 627.344 298.314 630.002 298.806 632.617C299.4 635.773 302.256 637.955 305.545 638.062C308.417 638.153 310.936 636.313 311.567 633.061C312.171 629.943 312.498 626.729 312.535 623.547C312.69 610.192 312.674 596.843 312.765 583.489C312.802 577.868 312.546 572.295 311.198 566.802C309.786 561.069 306.272 557.497 300.582 556.02C300.245 555.935 299.919 555.828 299.411 555.684C299.453 554.903 299.496 554.149 299.555 553.143H351.374C351.438 552.972 351.497 552.801 351.561 552.635C350.85 552.202 350.16 551.731 349.427 551.341C345.352 549.164 341.212 547.084 337.19 544.811C334.142 543.083 331.409 540.955 330.061 537.51C328.938 534.644 328.81 531.841 330.2 528.991C332.997 523.247 337.88 520.466 343.897 519.546C353.155 518.134 362.14 519.599 370.889 522.739C371.724 523.038 372.515 523.461 373.339 523.792C374.419 524.225 374.788 525.017 374.622 526.124C373.922 530.857 373.226 535.59 372.51 540.489C371.793 540.307 371.248 540.345 371.018 540.094C367.408 536.066 363.894 531.959 360.236 527.98C359.048 526.686 357.567 525.637 356.128 524.611C353.796 522.947 351.064 522.765 348.454 523.439C347.133 523.782 345.774 524.926 344.967 526.081C343.394 528.322 343.02 530.943 343.512 533.702C344.277 537.997 346.764 541.217 350.026 543.778C354.502 547.292 359.284 550.41 363.787 553.892C367.718 556.935 371.654 560.026 375.216 563.481C381.067 569.15 384.543 576.13 385.747 584.275C386.816 591.5 386.923 598.651 384.816 605.684C382.094 614.776 376.328 620.712 366.777 622.627C362.888 623.408 359.032 623.686 355.155 622.696C348.459 620.985 343.715 616.835 341.362 610.449C337.394 599.683 339.469 589.789 346.774 581.045C349.486 577.798 353.101 575.59 357 573.969C359.375 572.98 361.835 572.199 364.616 571.193L364.605 571.199ZM263.342 612.284C263.888 617.038 264.316 622.536 265.204 627.954C265.808 631.649 267.209 635.163 270.183 637.752C272.172 639.484 273.868 639.501 275.911 637.843C277.831 636.281 279.243 634.286 279.879 631.954C280.697 628.975 281.462 625.916 281.665 622.852C281.959 618.434 281.794 613.984 281.697 609.551C281.58 604.315 281.542 599.057 281.066 593.848C280.713 589.982 279.895 586.131 278.922 582.366C278.478 580.644 277.365 578.964 276.189 577.584C274.547 575.664 272.557 575.606 270.461 577.05C268.338 578.515 266.813 580.51 266.172 582.986C265.46 585.719 264.77 588.511 264.546 591.313C264.011 598.041 263.754 604.785 263.348 612.289L263.342 612.284ZM366.306 575.167C362.412 577.082 359.856 579.788 358.123 583.28C353.374 592.843 353.545 602.625 357.027 612.492C357.428 613.631 358.107 614.765 358.936 615.642C360.926 617.733 363.637 617.434 364.824 614.819C365.948 612.348 366.958 609.706 367.311 607.042C367.889 602.662 368.044 598.212 368.098 593.784C368.14 590.072 367.889 586.345 367.557 582.644C367.343 580.221 366.76 577.83 366.301 575.167H366.306Z" fill="#D14415"/>
<path d="M442.108 634.804C440.616 637.879 438.659 640.735 435.68 642.708C429.519 646.784 422.732 648.394 415.405 647.575C412.848 647.292 410.303 646.853 407.789 646.292C401.259 644.837 396.467 641.072 393.146 635.253C389.723 629.252 388.685 622.942 390.161 616.219C390.466 614.839 390.942 613.481 391.509 612.186C395.419 603.33 401.264 595.922 408.361 589.376C413.265 584.852 417.967 580.108 422.603 575.305C424.379 573.471 425.946 571.337 427.187 569.107C429.347 565.229 428.797 561.598 426.037 558.806C423.261 555.998 419.924 555.672 416.41 556.897C406.912 560.207 404.885 571.839 411.073 578.546C411.682 579.209 412.394 579.733 411.886 580.819C411.399 581.862 410.623 582.071 409.543 582.167C400.435 582.953 393.568 574.909 392.766 569.016C391.429 559.218 397.59 552.714 404.687 550.901C413.672 548.602 422.55 549.452 430.69 554.378C435.482 557.282 439.188 561.261 440.707 566.732C442.541 573.358 442.06 579.808 437.787 585.536C435.027 589.237 432.064 592.735 428.642 595.917C423.833 600.383 419.336 605.207 414.902 610.052C411.276 614.015 409.645 618.765 409.976 624.252C410.431 631.857 417.325 638.879 424.882 639.104C428.572 639.216 431.364 637.58 433.439 634.595C436.177 630.654 437.225 626.209 437.257 621.492C437.3 615.438 437.311 609.384 437.247 603.33C437.231 601.821 437.664 601.057 439.103 600.287C443.846 597.741 447.494 594.067 449.393 588.879C449.601 588.301 449.874 587.75 450.098 587.232C450.462 587.135 450.714 587.023 450.97 587.007C453.987 586.772 454.222 586.937 454.185 589.932C454.078 598.297 453.848 606.662 453.816 615.032C453.799 619.203 453.981 623.385 454.324 627.541C454.709 632.231 457.03 635.959 460.843 638.692C464.015 640.965 467.822 639.895 469.539 636.382C471.443 632.472 472.261 628.295 472.368 623.995C472.609 614.657 472.764 605.319 472.893 595.976C472.999 587.97 473.026 572.43 473.08 564.423C473.096 561.942 473.08 559.455 473.08 556.963C472.261 556.722 471.775 556.487 471.267 556.449C466.138 556.048 461.298 554.481 456.687 552.358C454.142 551.187 451.687 549.572 449.596 547.71C444.675 543.33 443.06 537.613 444.205 531.227C445.087 526.28 447.997 522.44 452.446 520.328C459.142 517.151 466.084 516.964 472.684 520.766C476.16 522.766 479.15 525.44 481.658 528.655C486.295 534.586 489.226 541.282 491.141 548.502C492.766 554.642 493.515 560.92 493.815 567.221C494.184 574.949 494.355 590.237 494.221 597.971C494.071 607.031 493.884 616.107 492.216 625.065C491.36 629.67 489.734 633.948 487.231 637.911C485.942 639.954 483.99 641.141 482.006 642.355C470.989 649.094 460.019 648.613 449.339 641.805C446.644 640.088 444.633 637.296 442.108 634.804ZM473.128 549.807C472.909 546.293 472.898 543.1 472.459 539.971C471.983 536.559 471.261 533.163 470.363 529.842C469.705 527.414 468.325 525.307 465.972 524.055C463.522 522.756 461.431 523.323 460.223 525.836C459.618 527.088 459.158 528.516 459.078 529.89C458.73 535.896 460.891 541.046 465.041 545.309C467.154 547.475 469.764 548.951 473.133 549.807H473.128Z" fill="#D14415"/>
<path d="M702.593 634.388C701.898 635.752 701.379 636.886 700.764 637.961C697.657 643.368 692.907 645.892 686.736 646.16C673.322 646.743 660.834 636.164 658.909 622.376C658.246 617.611 657.711 612.873 657.791 608.059C657.893 602.01 657.663 595.94 658 589.907C658.347 583.72 658.444 577.446 660.604 571.499C662.326 566.755 664.605 562.364 668.675 559.161C671.29 557.102 674.162 555.54 677.649 554.711C677.649 552.08 677.767 549.443 677.606 546.822C677.51 545.202 676.462 544.362 674.815 544.063C674.296 543.972 673.756 543.982 673.05 543.934C672.98 543.367 672.916 542.811 672.809 541.891C674.232 541.891 675.456 541.891 676.681 541.891C679.708 541.891 682.735 541.865 685.762 541.902C689.281 541.939 691.127 543.811 691.185 547.357C691.201 548.512 691.132 549.668 691.121 550.828C691.11 551.973 691.121 553.123 691.121 554.39C692.314 554.69 693.432 554.909 694.512 555.24C703.903 558.155 707.048 565.846 705.251 574.237C704.128 579.468 700.994 583.447 696.747 586.779C691.565 590.849 685.575 592.036 679.323 592.678C678.884 592.726 678.441 592.753 677.687 592.812C677.633 595.357 677.526 597.908 677.542 600.454C677.585 606.508 677.505 612.568 677.82 618.611C678.098 623.933 678.687 629.265 681.157 634.142C682.398 636.592 683.987 638.678 686.853 639.373C689.736 640.068 692.169 639.346 693.972 636.982C696.624 633.506 698.298 629.527 698.528 625.2C698.887 618.365 698.833 611.504 698.951 604.658C698.956 604.305 698.962 603.941 698.914 603.588C698.48 600.262 699.111 597.775 702.641 596.111C706.005 594.528 708.043 591.319 709.482 587.864C709.754 587.212 710.022 586.56 710.364 585.741C711.295 585.693 712.231 585.64 713.161 585.591C713.905 587.485 713.792 589.202 713.728 590.982C713.552 596.138 713.589 601.304 713.578 606.466C713.562 612.161 713.407 617.868 713.653 623.558C713.798 626.896 714.493 630.228 715.167 633.511C715.68 636.009 717.52 637.662 719.659 638.876C722.13 640.282 724.451 639.608 726.574 638.02C730.628 634.993 733.217 630.907 734.95 626.222C737.736 618.686 737.886 610.974 736.838 603.085C735.672 594.282 730.853 587.656 724.868 581.618C721.863 578.585 718.771 575.633 715.83 572.531C713.819 570.408 712.632 567.921 712.813 564.819C713.043 560.958 714.68 558.005 717.916 555.952C720.429 554.358 723.157 553.326 726.152 553.074C727.286 552.978 728.42 552.844 729.639 552.299C728.789 551.909 727.96 551.47 727.088 551.133C723.055 549.55 719.574 547.117 716.354 544.271C710.893 539.437 711.038 532.81 715.381 527.398C718.467 523.552 722.681 521.809 727.371 521.103C732.329 520.359 737.249 520.648 742.229 521.402C746.753 522.087 751.112 523.167 755.332 524.868C758 525.948 758.086 526.216 757.642 529.093C757.161 532.259 756.711 535.425 756.193 538.581C756.043 539.49 755.706 540.367 755.3 541.822C753.877 540.512 752.813 539.634 751.866 538.64C748.684 535.286 745.614 531.821 742.357 528.542C739.907 526.077 737.019 524.536 733.313 524.729C730.922 524.857 729.195 525.831 728.018 527.761C726.633 530.029 726.237 532.521 726.644 535.174C727.136 538.378 727.949 541.389 730.083 543.982C733.896 548.603 738.854 551.09 744.63 552.171C746.459 552.513 748.293 552.823 750.272 553.171V557.23C748.839 557.342 747.454 557.535 746.069 557.54C743.132 557.551 740.223 557.556 737.362 558.428C734.265 559.364 731.848 561.22 729.708 563.557C727.96 565.472 727.826 569.124 729.409 570.959C730.217 571.895 730.981 572.906 731.917 573.702C735.698 576.949 739.635 580.019 743.32 583.367C746.336 586.11 749.352 588.939 751.893 592.111C758.086 599.839 760.231 608.749 758.145 618.44C754.128 637.111 738.201 647.684 722.151 646.705C715.076 646.272 708.936 643.304 704.727 637.196C704.128 636.324 703.449 635.506 702.593 634.383V634.388ZM677.799 586.939C680.548 586.891 682.564 585.533 684.345 583.736C689.126 578.922 691.169 573.029 690.881 566.354C690.8 564.562 690.233 562.674 689.436 561.054C688.49 559.145 686.511 558.936 685.035 560.476C683.767 561.803 682.495 563.268 681.735 564.905C679.831 569.012 678.617 573.365 678.141 577.901C677.831 580.869 677.237 583.832 677.799 586.939Z" fill="#D14415"/>
<path d="M297.241 515.668C298.979 514.914 299.68 515.668 300.257 516.994C304.07 525.712 301.589 536.574 294.101 542.366C285.309 549.169 276.34 555.747 267.435 562.411C267.237 562.561 266.959 562.593 266.515 562.753C259.884 550.308 253.263 537.879 246.609 525.385H265.446C262.178 529.535 260.167 533.52 260.766 538.317C261.178 541.59 262.034 544.735 263.622 547.864C264.312 547.495 264.857 547.265 265.339 546.939C272.89 541.745 280.458 536.584 287.946 531.306C289.743 530.038 291.427 528.519 292.855 526.845C295.599 523.631 297.899 520.139 297.241 515.673V515.668Z" fill="#D14415"/>
<defs>
<filter id="filter0_d_390_15510" x="796" y="745" width="588" height="588" filterUnits="userSpaceOnUse" color-interpolation-filters="sRGB">
<feFlood flood-opacity="0" result="BackgroundImageFix"/>
<feColorMatrix in="SourceAlpha" type="matrix" values="0 0 0 0 0 0 0 0 0 0 0 0 0 0 0 0 0 0 127 0" result="hardAlpha"/>
<feMorphology radius="1" operator="dilate" in="SourceAlpha" result="effect1_dropShadow_390_15510"/>
<feOffset dx="10" dy="10"/>
<feGaussianBlur stdDeviation="7.5"/>
<feComposite in2="hardAlpha" operator="out"/>
<feColorMatrix type="matrix" values="0 0 0 0 0 0 0 0 0 0 0 0 0 0 0 0 0 0 0.2 0"/>
<feBlend mode="normal" in2="BackgroundImageFix" result="effect1_dropShadow_390_15510"/>
<feBlend mode="normal" in="SourceGraphic" in2="effect1_dropShadow_390_15510" result="shape"/>
</filter>
<filter id="filter1_d_390_15510" x="796" y="126" width="588" height="588" filterUnits="userSpaceOnUse" color-interpolation-filters="sRGB">
<feFlood flood-opacity="0" result="BackgroundImageFix"/>
<feColorMatrix in="SourceAlpha" type="matrix" values="0 0 0 0 0 0 0 0 0 0 0 0 0 0 0 0 0 0 127 0" result="hardAlpha"/>
<feMorphology radius="1" operator="dilate" in="SourceAlpha" result="effect1_dropShadow_390_15510"/>
<feOffset dx="10" dy="10"/>
<feGaussianBlur stdDeviation="7.5"/>
<feComposite in2="hardAlpha" operator="out"/>
<feColorMatrix type="matrix" values="0 0 0 0 0 0 0 0 0 0 0 0 0 0 0 0 0 0 0.2 0"/>
<feBlend mode="normal" in2="BackgroundImageFix" result="effect1_dropShadow_390_15510"/>
<feBlend mode="normal" in="SourceGraphic" in2="effect1_dropShadow_390_15510" result="shape"/>
</filter>
<filter id="filter2_d_390_15510" x="217" y="745" width="588" height="588" filterUnits="userSpaceOnUse" color-interpolation-filters="sRGB">
<feFlood flood-opacity="0" result="BackgroundImageFix"/>
<feColorMatrix in="SourceAlpha" type="matrix" values="0 0 0 0 0 0 0 0 0 0 0 0 0 0 0 0 0 0 127 0" result="hardAlpha"/>
<feMorphology radius="1" operator="dilate" in="SourceAlpha" result="effect1_dropShadow_390_15510"/>
<feOffset dx="10" dy="10"/>
<feGaussianBlur stdDeviation="7.5"/>
<feComposite in2="hardAlpha" operator="out"/>
<feColorMatrix type="matrix" values="0 0 0 0 0 0 0 0 0 0 0 0 0 0 0 0 0 0 0.2 0"/>
<feBlend mode="normal" in2="BackgroundImageFix" result="effect1_dropShadow_390_15510"/>
<feBlend mode="normal" in="SourceGraphic" in2="effect1_dropShadow_390_15510" result="shape"/>
</filter>
<filter id="filter3_d_390_15510" x="217" y="126" width="588" height="588" filterUnits="userSpaceOnUse" color-interpolation-filters="sRGB">
<feFlood flood-opacity="0" result="BackgroundImageFix"/>
<feColorMatrix in="SourceAlpha" type="matrix" values="0 0 0 0 0 0 0 0 0 0 0 0 0 0 0 0 0 0 127 0" result="hardAlpha"/>
<feMorphology radius="1" operator="dilate" in="SourceAlpha" result="effect1_dropShadow_390_15510"/>
<feOffset dx="10" dy="10"/>
<feGaussianBlur stdDeviation="7.5"/>
<feComposite in2="hardAlpha" operator="out"/>
<feColorMatrix type="matrix" values="0 0 0 0 0 0 0 0 0 0 0 0 0 0 0 0 0 0 0.2 0"/>
<feBlend mode="normal" in2="BackgroundImageFix" result="effect1_dropShadow_390_15510"/>
<feBlend mode="normal" in="SourceGraphic" in2="effect1_dropShadow_390_15510" result="shape"/>
</filter>
<filter id="filter4_d_390_15510" x="1374" y="745" width="588" height="588" filterUnits="userSpaceOnUse" color-interpolation-filters="sRGB">
<feFlood flood-opacity="0" result="BackgroundImageFix"/>
<feColorMatrix in="SourceAlpha" type="matrix" values="0 0 0 0 0 0 0 0 0 0 0 0 0 0 0 0 0 0 127 0" result="hardAlpha"/>
<feMorphology radius="1" operator="dilate" in="SourceAlpha" result="effect1_dropShadow_390_15510"/>
<feOffset dx="10" dy="10"/>
<feGaussianBlur stdDeviation="7.5"/>
<feComposite in2="hardAlpha" operator="out"/>
<feColorMatrix type="matrix" values="0 0 0 0 0 0 0 0 0 0 0 0 0 0 0 0 0 0 0.2 0"/>
<feBlend mode="normal" in2="BackgroundImageFix" result="effect1_dropShadow_390_15510"/>
<feBlend mode="normal" in="SourceGraphic" in2="effect1_dropShadow_390_15510" result="shape"/>
</filter>
<filter id="filter5_d_390_15510" x="1374" y="126" width="588" height="588" filterUnits="userSpaceOnUse" color-interpolation-filters="sRGB">
<feFlood flood-opacity="0" result="BackgroundImageFix"/>
<feColorMatrix in="SourceAlpha" type="matrix" values="0 0 0 0 0 0 0 0 0 0 0 0 0 0 0 0 0 0 127 0" result="hardAlpha"/>
<feMorphology radius="1" operator="dilate" in="SourceAlpha" result="effect1_dropShadow_390_15510"/>
<feOffset dx="10" dy="10"/>
<feGaussianBlur stdDeviation="7.5"/>
<feComposite in2="hardAlpha" operator="out"/>
<feColorMatrix type="matrix" values="0 0 0 0 0 0 0 0 0 0 0 0 0 0 0 0 0 0 0.2 0"/>
<feBlend mode="normal" in2="BackgroundImageFix" result="effect1_dropShadow_390_15510"/>
<feBlend mode="normal" in="SourceGraphic" in2="effect1_dropShadow_390_15510" result="shape"/>
</filter>
</defs>
</svg>
